<svg width="435" height="95" viewBox="0 0 435 95" fill="none" xmlns="http://www.w3.org/2000/svg">
<path d="M12.832 2.144V37.424H6.88V8.72H6.784L0.112 14.192V8.144L7.84 2.144H12.832ZM30.0258 2.144H36.5058L28.0098 16.256L28.0578 16.352C29.3698 15.616 30.9698 15.248 32.8578 15.248C35.7378 15.248 38.1698 16.272 40.1538 18.32C42.2338 20.464 43.2738 23.184 43.2738 26.48C43.2098 29.968 42.0898 32.784 39.9138 34.928C37.7058 37.04 34.8418 38.128 31.3218 38.192C27.7698 38.192 24.8738 37.072 22.6338 34.832C20.4258 32.624 19.3218 29.84 19.3218 26.48C19.3218 24.624 19.7218 22.64 20.5218 20.528C21.0978 19.024 22.0898 16.976 23.4978 14.384L30.0258 2.144ZM25.5138 26.672C25.5138 28.56 26.0258 30.048 27.0498 31.136C28.0738 32.224 29.4498 32.768 31.1778 32.768C32.9378 32.768 34.3458 32.24 35.4018 31.184C36.4898 30.096 37.0338 28.624 37.0338 26.768C37.0338 24.88 36.5538 23.392 35.5938 22.304C34.6338 21.216 33.2898 20.672 31.5618 20.672C29.8018 20.672 28.3618 21.2 27.2418 22.256C26.0898 23.344 25.5138 24.816 25.5138 26.672ZM61.8411 37.424V2.144H84.1611V7.376H67.8891V37.424H61.8411ZM88.6536 2.144H111.502V7.376H94.7016V15.488H102.574C106.798 15.488 109.966 16.464 112.078 18.416C114.062 20.24 115.054 22.896 115.054 26.384C115.054 30.16 113.806 32.992 111.31 34.88C109.07 36.576 105.95 37.424 101.95 37.424H88.6536V2.144ZM94.7016 32.096H101.566C103.966 32.096 105.742 31.68 106.894 30.848C108.174 29.92 108.814 28.384 108.814 26.24C108.814 24.192 108.11 22.736 106.702 21.872C105.55 21.168 103.902 20.816 101.758 20.816H94.7016V32.096ZM131.774 24.56C131.774 20.624 132.926 17.424 135.23 14.96C137.566 12.464 140.654 11.216 144.494 11.216C148.366 11.216 151.47 12.464 153.806 14.96C156.11 17.392 157.262 20.592 157.262 24.56C157.262 28.528 156.11 31.728 153.806 34.16C151.47 36.624 148.366 37.856 144.494 37.856C140.622 37.856 137.534 36.624 135.23 34.16C132.926 31.728 131.774 28.528 131.774 24.56ZM137.774 24.56C137.774 26.992 138.35 28.944 139.502 30.416C140.718 31.984 142.382 32.768 144.494 32.768C146.606 32.768 148.27 31.984 149.486 30.416C150.638 28.912 151.214 26.96 151.214 24.56C151.214 22.16 150.638 20.208 149.486 18.704C148.27 17.104 146.606 16.304 144.494 16.304C142.382 16.304 140.718 17.104 139.502 18.704C138.35 20.208 137.774 22.16 137.774 24.56ZM162.187 37.424V11.696H183.979V37.424H178.171V16.592H167.947V37.424H162.187ZM201.826 37.856C197.986 37.856 194.898 36.624 192.562 34.16C190.226 31.696 189.058 28.464 189.058 24.464C189.058 20.624 190.242 17.456 192.61 14.96C194.978 12.464 197.986 11.216 201.634 11.216C205.154 11.216 208.018 12.432 210.226 14.864C212.466 17.328 213.586 20.512 213.586 24.416C213.586 25.344 213.57 26.032 213.538 26.48H194.962C195.25 28.4 195.97 29.936 197.122 31.088C198.402 32.336 200.082 32.96 202.162 32.96C205.33 32.8 207.698 31.744 209.266 29.792L212.578 33.152C211.554 34.528 210.082 35.648 208.162 36.512C206.178 37.408 204.066 37.856 201.826 37.856ZM194.914 22.208H207.826C207.762 20.416 207.138 18.928 205.954 17.744C204.77 16.56 203.33 15.968 201.634 15.968C199.842 15.968 198.338 16.544 197.122 17.696C195.906 18.848 195.17 20.352 194.914 22.208ZM218.343 47.984V11.696H223.719V15.392H223.815C224.647 14.208 225.719 13.248 227.031 12.512C228.567 11.648 230.215 11.216 231.975 11.216C235.271 11.216 237.991 12.4 240.135 14.768C242.343 17.232 243.447 20.464 243.447 24.464C243.351 28.72 242.183 32.016 239.943 34.352C237.703 36.656 234.967 37.824 231.735 37.856C230.167 37.856 228.695 37.536 227.319 36.896C226.103 36.32 225.095 35.568 224.295 34.64H224.103V47.984H218.343ZM223.959 24.656C223.959 27.056 224.583 29.008 225.831 30.512C227.079 32.016 228.727 32.768 230.775 32.768C232.727 32.768 234.327 32.032 235.575 30.56C236.823 29.088 237.447 27.088 237.447 24.56C237.447 22 236.807 19.968 235.527 18.464C234.279 17.024 232.679 16.304 230.727 16.304C228.903 16.304 227.351 17.008 226.071 18.416C224.663 19.984 223.959 22.064 223.959 24.656ZM258.624 11.216C261.632 11.216 264.08 12.048 265.968 13.712C267.984 15.472 268.992 17.856 268.992 20.864V37.424H263.616V33.92H263.472C262.832 35.008 261.808 35.92 260.4 36.656C258.832 37.456 257.12 37.856 255.264 37.856C252.864 37.856 250.816 37.136 249.12 35.696C247.36 34.192 246.48 32.272 246.48 29.936C246.48 27.376 247.488 25.328 249.504 23.792C251.456 22.32 253.968 21.584 257.04 21.584C259.312 21.584 261.376 21.968 263.232 22.736V20.96C263.232 19.36 262.752 18.128 261.792 17.264C260.864 16.432 259.616 16.016 258.048 16.016C255.52 16.016 253.344 17.12 251.52 19.328L247.92 16.016C249.104 14.576 250.576 13.44 252.336 12.608C254.288 11.68 256.384 11.216 258.624 11.216ZM252.336 29.504C252.336 30.688 252.736 31.616 253.536 32.288C254.336 32.96 255.456 33.296 256.896 33.296C258.592 33.296 260.064 32.8 261.312 31.808C262.592 30.784 263.232 29.52 263.232 28.016V26.624C261.696 25.856 259.776 25.472 257.472 25.472C256 25.472 254.8 25.808 253.872 26.48C252.848 27.216 252.336 28.224 252.336 29.504ZM280.359 37.424V16.592H271.863V11.696H294.663V16.592H286.167V37.424H280.359ZM298.493 37.424V11.696H304.253V29.072H304.397L315.341 11.696H321.101V37.424H315.341V20H315.149L304.253 37.424H298.493ZM327.375 37.424V11.696H339.663C342.319 11.696 344.383 12.256 345.855 13.376C347.359 14.528 348.111 16.144 348.111 18.224C348.111 20.912 346.879 22.848 344.415 24.032V24.128C347.359 25.152 348.879 27.12 348.975 30.032C348.975 32.464 348.111 34.32 346.383 35.6C344.751 36.816 342.591 37.424 339.903 37.424H327.375ZM333.135 33.104H338.367C341.503 33.104 343.071 31.984 343.071 29.744C343.039 27.472 341.455 26.304 338.319 26.24H333.135V33.104ZM333.135 22.304H337.743C340.719 22.304 342.207 21.264 342.207 19.184C342.207 17.072 340.703 16.016 337.695 16.016H333.135V22.304ZM370.47 37.424V26.768H359.478V37.424H353.718V11.696H359.478V21.872H370.47V11.696H376.278V37.424H370.47ZM381.289 24.56C381.289 20.624 382.441 17.424 384.745 14.96C387.081 12.464 390.169 11.216 394.009 11.216C397.881 11.216 400.985 12.464 403.321 14.96C405.625 17.392 406.777 20.592 406.777 24.56C406.777 28.528 405.625 31.728 403.321 34.16C400.985 36.624 397.881 37.856 394.009 37.856C390.137 37.856 387.049 36.624 384.745 34.16C382.441 31.728 381.289 28.528 381.289 24.56ZM387.289 24.56C387.289 26.992 387.865 28.944 389.017 30.416C390.233 31.984 391.897 32.768 394.009 32.768C396.121 32.768 397.785 31.984 399.001 30.416C400.153 28.912 400.729 26.96 400.729 24.56C400.729 22.16 400.153 20.208 399.001 18.704C397.785 17.104 396.121 16.304 394.009 16.304C391.897 16.304 390.233 17.104 389.017 18.704C387.865 20.208 387.289 22.16 387.289 24.56ZM411.415 37.424V11.696H417.175V29.072H417.319L428.263 11.696H434.023V37.424H428.263V20H428.071L417.175 37.424H411.415ZM415.015 0.943999H419.671C419.863 1.904 420.231 2.656 420.775 3.2C421.415 3.808 422.247 4.112 423.271 4.112C424.295 4.112 425.127 3.808 425.767 3.2C426.311 2.656 426.679 1.904 426.871 0.943999H431.479C431.223 3.024 430.359 4.72 428.887 6.032C427.383 7.376 425.511 8.048 423.271 8.048C421.063 8.048 419.191 7.376 417.655 6.032C416.151 4.72 415.271 3.024 415.015 0.943999ZM1.312 94.424V68.696H23.104V94.424H17.296V73.592H7.072V94.424H1.312ZM40.3274 68.216C43.3354 68.216 45.7834 69.048 47.6714 70.712C49.6874 72.472 50.6954 74.856 50.6954 77.864V94.424H45.3194V90.92H45.1754C44.5354 92.008 43.5114 92.92 42.1034 93.656C40.5354 94.456 38.8234 94.856 36.9674 94.856C34.5674 94.856 32.5194 94.136 30.8234 92.696C29.0634 91.192 28.1834 89.272 28.1834 86.936C28.1834 84.376 29.1914 82.328 31.2074 80.792C33.1594 79.32 35.6714 78.584 38.7434 78.584C41.0154 78.584 43.0794 78.968 44.9354 79.736V77.96C44.9354 76.36 44.4554 75.128 43.4954 74.264C42.5674 73.432 41.3194 73.016 39.7514 73.016C37.2234 73.016 35.0474 74.12 33.2234 76.328L29.6234 73.016C30.8074 71.576 32.2794 70.44 34.0394 69.608C35.9914 68.68 38.0874 68.216 40.3274 68.216ZM34.0394 86.504C34.0394 87.688 34.4394 88.616 35.2394 89.288C36.0394 89.96 37.1594 90.296 38.5994 90.296C40.2954 90.296 41.7674 89.8 43.0154 88.808C44.2954 87.784 44.9354 86.52 44.9354 85.016V83.624C43.3994 82.856 41.4794 82.472 39.1754 82.472C37.7034 82.472 36.5034 82.808 35.5754 83.48C34.5514 84.216 34.0394 85.224 34.0394 86.504ZM56.9995 94.424V68.696H62.4715L70.8235 83.864H70.9195L79.3195 68.696H84.7435V94.424H78.9835V78.488H78.8875L72.2155 91.112H69.5275L62.8555 78.488H62.7595V94.424H56.9995ZM105.567 94.424V85.448H100.671L96.0629 94.424H89.9189L95.0549 84.776C93.3269 84.168 92.0149 83.176 91.1189 81.8C90.2549 80.488 89.8229 78.904 89.8229 77.048C89.8229 74.424 90.7349 72.36 92.5589 70.856C94.2869 69.416 96.5429 68.696 99.3269 68.696H111.375V94.424H105.567ZM95.7749 77.144C95.7749 78.328 96.1429 79.24 96.8789 79.88C97.6149 80.52 98.6709 80.84 100.047 80.84H105.567V73.496H100.047C97.2309 73.624 95.8069 74.84 95.7749 77.144ZM123.656 94.424V73.592H115.16V68.696H137.96V73.592H129.464V94.424H123.656ZM141.79 94.424V68.696H147.55V86.072H147.694L158.638 68.696H164.398V94.424H158.638V77H158.446L147.55 94.424H141.79Z" fill="url(#paint0_linear_78_92)"/>
<defs>
<linearGradient id="paint0_linear_78_92" x1="-2" y1="48" x2="341.857" y2="148.238" gradientUnits="userSpaceOnUse">
<stop offset="0.0714678" stop-color="#004F46"/>
<stop offset="1" stop-color="#037F75"/>
</linearGradient>
</defs>
</svg>
