<svg width="411" height="32" viewBox="0 0 411 32" fill="none" xmlns="http://www.w3.org/2000/svg">
<path d="M9.02863 1.096V24.616H5.06063V5.48H4.99663L0.548625 9.128V5.096L5.70063 1.096H9.02863ZM20.4911 1.096H24.8111L19.1471 10.568L19.1791 10.632C20.0751 10.0987 21.1418 9.832 22.3791 9.832C24.2778 9.832 25.8991 10.5147 27.2431 11.88C28.6298 13.288 29.3231 15.08 29.3231 17.256C29.3231 19.5387 28.5871 21.3947 27.1151 22.824C25.6218 24.2747 23.7018 25 21.3551 25C19.0085 25 17.0778 24.2533 15.5631 22.76C14.0911 21.3093 13.3551 19.4747 13.3551 17.256C13.3551 16.0187 13.6218 14.7067 14.1551 13.32C14.5178 12.3813 15.1791 11.0267 16.1391 9.256L20.4911 1.096ZM17.4831 17.384C17.4831 18.6 17.8245 19.5707 18.5071 20.296C19.1898 21.0213 20.1071 21.384 21.2591 21.384C22.4325 21.384 23.3711 21.0427 24.0751 20.36C24.8005 19.656 25.1631 18.6853 25.1631 17.448C25.1631 16.2107 24.8218 15.2293 24.1391 14.504C23.4778 13.8 22.5818 13.448 21.4511 13.448C20.2778 13.448 19.3285 13.7893 18.6031 14.472C17.8565 15.176 17.4831 16.1467 17.4831 17.384ZM41.7014 24.616V1.096H56.5814V4.584H45.7334V24.616H41.7014ZM59.5764 1.096H74.8084V4.584H63.6084V9.992H68.8564C71.6937 9.992 73.8057 10.6427 75.1924 11.944C76.515 13.16 77.1764 14.9307 77.1764 17.256C77.1764 19.7307 76.3444 21.608 74.6804 22.888C73.187 24.04 71.107 24.616 68.4404 24.616H59.5764V1.096ZM63.6084 21.064H68.1844C69.763 21.064 70.947 20.7867 71.7364 20.232C72.5897 19.5707 73.0164 18.5467 73.0164 17.16C73.0164 15.7733 72.5364 14.792 71.5764 14.216C70.851 13.768 69.763 13.544 68.3124 13.544H63.6084V21.064ZM88.3231 16.04C88.3231 13.3733 89.0911 11.24 90.6271 9.64C92.2058 7.976 94.2645 7.144 96.8031 7.144C99.3631 7.144 101.422 7.976 102.979 9.64C104.536 11.304 105.315 13.4373 105.315 16.04C105.315 18.6427 104.547 20.776 103.011 22.44C101.432 24.0827 99.3631 24.904 96.8031 24.904C94.2218 24.904 92.1631 24.0827 90.6271 22.44C89.0911 20.776 88.3231 18.6427 88.3231 16.04ZM92.3231 16.04C92.3231 17.6187 92.7071 18.92 93.4751 19.944C94.2858 20.9893 95.3951 21.512 96.8031 21.512C98.1685 21.512 99.2778 20.9893 100.131 19.944C100.899 18.92 101.283 17.6187 101.283 16.04C101.283 14.3973 100.899 13.096 100.131 12.136C99.3205 11.0693 98.2111 10.536 96.8031 10.536C95.3738 10.536 94.2645 11.0693 93.4751 12.136C92.7071 13.096 92.3231 14.3973 92.3231 16.04ZM108.599 24.616V7.464H123.127V24.616H119.255V10.728H112.439V24.616H108.599ZM135.025 24.904C132.508 24.904 130.46 24.0827 128.881 22.44C127.302 20.7973 126.513 18.6427 126.513 15.976C126.513 13.3947 127.302 11.2827 128.881 9.64C130.417 7.976 132.422 7.144 134.897 7.144C137.244 7.144 139.153 7.96533 140.625 9.608C142.118 11.2293 142.865 13.3413 142.865 15.944C142.865 16.4133 142.854 16.872 142.833 17.32H130.417C130.588 18.6 131.068 19.624 131.857 20.392C132.689 21.224 133.82 21.64 135.249 21.64C136.166 21.64 137.084 21.4373 138.001 21.032C138.769 20.648 139.43 20.1467 139.985 19.528L142.193 21.768C141.468 22.664 140.486 23.4107 139.249 24.008C137.969 24.5627 136.561 24.8613 135.025 24.904ZM130.417 14.472H139.025C138.961 13.2347 138.545 12.232 137.777 11.464C136.988 10.696 136.028 10.312 134.897 10.312C133.702 10.312 132.7 10.696 131.889 11.464C131.057 12.1893 130.566 13.192 130.417 14.472ZM146.036 31.656V7.464H149.62V9.928H149.684C150.217 9.16 150.943 8.52 151.86 8.008C152.884 7.432 153.972 7.144 155.124 7.144C157.321 7.144 159.135 7.944 160.564 9.544C162.036 11.144 162.772 13.288 162.772 15.976C162.729 18.7493 161.951 20.9467 160.436 22.568C158.964 24.0827 157.14 24.8613 154.964 24.904C153.897 24.8827 152.916 24.6587 152.02 24.232C151.167 23.848 150.495 23.3573 150.004 22.76H149.876V31.656H146.036ZM149.78 16.104C149.78 17.6613 150.196 18.952 151.028 19.976C151.86 21 152.959 21.512 154.324 21.512C155.583 21.512 156.639 21.0213 157.492 20.04C158.345 18.9947 158.772 17.6613 158.772 16.04C158.772 14.3547 158.345 13 157.492 11.976C156.66 11.016 155.593 10.536 154.292 10.536C153.033 10.536 151.999 11.0053 151.188 11.944C150.249 12.9467 149.78 14.3333 149.78 16.104ZM172.986 7.144C174.991 7.144 176.623 7.69867 177.882 8.808C179.226 9.96 179.898 11.5493 179.898 13.576V24.616H176.314V22.28H176.218C175.77 23.0053 175.087 23.6133 174.17 24.104C173.103 24.6373 171.962 24.904 170.746 24.904C169.125 24.904 167.759 24.4347 166.65 23.496C165.477 22.472 164.89 21.1813 164.89 19.624C164.89 17.9173 165.562 16.552 166.906 15.528C168.165 14.5467 169.839 14.056 171.93 14.056C173.402 14.056 174.789 14.312 176.09 14.824V13.64C176.069 12.5733 175.738 11.752 175.098 11.176C174.479 10.6213 173.647 10.344 172.602 10.344C170.917 10.344 169.477 11.08 168.282 12.552L165.85 10.344C166.639 9.36267 167.631 8.60533 168.826 8.072C170.063 7.45333 171.45 7.144 172.986 7.144ZM168.826 19.336C168.826 20.1253 169.093 20.744 169.626 21.192C170.138 21.6187 170.874 21.8427 171.834 21.864C172.943 21.864 173.925 21.5333 174.778 20.872C175.653 20.168 176.09 19.3253 176.09 18.344V17.416C175.109 16.9467 173.829 16.6907 172.25 16.648C171.205 16.648 170.394 16.872 169.818 17.32C169.157 17.7893 168.826 18.4613 168.826 19.336ZM187.316 24.616V10.728H181.652V7.464H196.852V10.728H191.188V24.616H187.316ZM199.344 24.616V7.464H203.184V19.048H203.28L210.576 7.464H214.416V24.616H210.576V13H210.448L203.184 24.616H199.344ZM218.599 24.616V7.464H226.535C228.284 7.464 229.66 7.83733 230.663 8.584C231.665 9.352 232.167 10.4293 232.167 11.816C232.167 13.5867 231.345 14.8773 229.703 15.688V15.752C230.684 16.072 231.431 16.5733 231.943 17.256C232.433 17.8747 232.7 18.6853 232.743 19.688C232.743 21.3093 232.167 22.5467 231.015 23.4C229.905 24.2107 228.465 24.616 226.695 24.616H218.599ZM222.439 21.672H225.799C226.737 21.6507 227.473 21.4693 228.007 21.128C228.497 20.744 228.753 20.2 228.775 19.496C228.775 18.792 228.508 18.2373 227.975 17.832C227.441 17.4267 226.705 17.224 225.767 17.224H222.439V21.672ZM222.439 14.472H225.543C226.375 14.472 227.025 14.3013 227.495 13.96C227.964 13.5973 228.199 13.1067 228.199 12.488C228.199 11.8267 227.985 11.336 227.559 11.016C227.089 10.6107 226.407 10.408 225.511 10.408H222.439V14.472ZM247.11 24.616V17.512H239.782V24.616H235.942V7.464H239.782V14.248H247.11V7.464H250.982V24.616H247.11ZM254.323 16.04C254.323 13.3733 255.091 11.24 256.627 9.64C258.206 7.976 260.264 7.144 262.803 7.144C265.363 7.144 267.422 7.976 268.979 9.64C270.536 11.304 271.315 13.4373 271.315 16.04C271.315 18.6427 270.547 20.776 269.011 22.44C267.432 24.0827 265.363 24.904 262.803 24.904C260.222 24.904 258.163 24.0827 256.627 22.44C255.091 20.776 254.323 18.6427 254.323 16.04ZM258.323 16.04C258.323 17.6187 258.707 18.92 259.475 19.944C260.286 20.9893 261.395 21.512 262.803 21.512C264.168 21.512 265.278 20.9893 266.131 19.944C266.899 18.92 267.283 17.6187 267.283 16.04C267.283 14.3973 266.899 13.096 266.131 12.136C265.32 11.0693 264.211 10.536 262.803 10.536C261.374 10.536 260.264 11.0693 259.475 12.136C258.707 13.096 258.323 14.3973 258.323 16.04ZM274.407 24.616V7.464H278.247V19.048H278.343L285.639 7.464H289.479V24.616H285.639V13H285.511L278.247 24.616H274.407ZM276.615 0.296H279.719C279.847 0.935999 280.092 1.43733 280.455 1.8C280.903 2.20533 281.457 2.408 282.119 2.408C282.737 2.408 283.281 2.20533 283.751 1.8C284.135 1.416 284.391 0.914666 284.519 0.296H287.591C287.399 1.66133 286.823 2.792 285.863 3.688C284.839 4.584 283.591 5.032 282.119 5.032C280.604 5.032 279.345 4.584 278.343 3.688C277.34 2.81333 276.764 1.68267 276.615 0.296ZM302.286 24.616V7.464H316.814V24.616H312.942V10.728H306.126V24.616H302.286ZM328.392 7.144C330.398 7.144 332.03 7.69867 333.288 8.808C334.632 9.96 335.304 11.5493 335.304 13.576V24.616H331.72V22.28H331.624C331.176 23.0053 330.494 23.6133 329.576 24.104C328.51 24.6373 327.368 24.904 326.152 24.904C324.531 24.904 323.166 24.4347 322.056 23.496C320.883 22.472 320.296 21.1813 320.296 19.624C320.296 17.9173 320.968 16.552 322.312 15.528C323.571 14.5467 325.246 14.056 327.336 14.056C328.808 14.056 330.195 14.312 331.496 14.824V13.64C331.475 12.5733 331.144 11.752 330.504 11.176C329.886 10.6213 329.054 10.344 328.008 10.344C326.323 10.344 324.883 11.08 323.688 12.552L321.256 10.344C322.046 9.36267 323.038 8.60533 324.232 8.072C325.47 7.45333 326.856 7.144 328.392 7.144ZM324.232 19.336C324.232 20.1253 324.499 20.744 325.032 21.192C325.544 21.6187 326.28 21.8427 327.24 21.864C328.35 21.864 329.331 21.5333 330.184 20.872C331.059 20.168 331.496 19.3253 331.496 18.344V17.416C330.515 16.9467 329.235 16.6907 327.656 16.648C326.611 16.648 325.8 16.872 325.224 17.32C324.563 17.7893 324.232 18.4613 324.232 19.336ZM339.411 24.616V7.464H343.059L348.627 17.576H348.691L354.291 7.464H357.907V24.616H354.067V14.056H354.003L349.555 22.408H347.763L343.283 14.056H343.251V24.616H339.411ZM371.789 24.616V18.632H368.557L365.453 24.616H361.357L364.845 18.152C363.629 17.7253 362.733 17.0747 362.157 16.2C361.581 15.304 361.293 14.248 361.293 13.032C361.293 11.2827 361.901 9.896 363.117 8.872C364.248 7.93333 365.752 7.464 367.629 7.464H375.661V24.616H371.789ZM365.261 13.096C365.261 13.8853 365.507 14.4933 365.997 14.92C366.488 15.3253 367.192 15.5387 368.109 15.56H371.789V10.664H368.109C367.213 10.664 366.509 10.888 365.997 11.336C365.507 11.7627 365.261 12.3493 365.261 13.096ZM383.785 24.616V10.728H378.121V7.464H393.321V10.728H387.657V24.616H383.785ZM395.813 24.616V7.464H399.653V19.048H399.749L407.045 7.464H410.885V24.616H407.045V13H406.917L399.653 24.616H395.813Z" fill="url(#paint0_linear_78_410)"/>
<defs>
<linearGradient id="paint0_linear_78_410" x1="-50" y1="13" x2="163.294" y2="228.1" gradientUnits="userSpaceOnUse">
<stop offset="0.0714678" stop-color="#004F46"/>
<stop offset="1" stop-color="#037F75"/>
</linearGradient>
</defs>
</svg>
