<svg width="413" height="103" viewBox="0 0 413 103" fill="none" xmlns="http://www.w3.org/2000/svg">
<path d="M14.736 38.192C11.504 38.192 8.624 37.408 6.096 35.84C3.6 34.304 1.856 32.288 0.864 29.792L5.472 27.296C7.424 30.848 10.448 32.624 14.544 32.624C17.36 32.624 19.712 31.68 21.6 29.792C23.488 27.904 24.624 25.344 25.008 22.112H8.88V16.832H24.912C24.464 13.76 23.312 11.328 21.456 9.536C19.664 7.808 17.456 6.944 14.832 6.944C11.344 6.944 8.336 8.208 5.808 10.736L1.872 6.8C4.976 3.344 9.264 1.536 14.736 1.376C19.536 1.376 23.504 3.056 26.64 6.416C29.872 9.872 31.488 14.336 31.488 19.808C31.392 25.344 29.808 29.776 26.736 33.104C23.664 36.4 19.664 38.096 14.736 38.192ZM49.9328 36.8C48.7808 37.504 47.3888 37.856 45.7568 37.856C42.7168 37.856 40.2368 36.784 38.3168 34.64C36.1408 32.208 35.0527 28.8 35.0527 24.416C35.0527 20.128 36.1248 16.784 38.2688 14.384C40.1568 12.272 42.5088 11.216 45.3248 11.216C47.1168 11.216 48.6528 11.584 49.9328 12.32V0.704H55.6928V12.32C56.9728 11.584 58.4608 11.216 60.1568 11.216C63.0048 11.216 65.3728 12.272 67.2608 14.384C69.4048 16.784 70.4768 20.128 70.4768 24.416C70.4768 28.832 69.3888 32.24 67.2128 34.64C65.2608 36.784 62.7488 37.856 59.6768 37.856C58.1728 37.856 56.8448 37.52 55.6928 36.848V47.984H49.9328V36.8ZM40.8608 24.416C40.8608 27.136 41.4208 29.232 42.5408 30.704C43.5968 32.112 45.0208 32.816 46.8128 32.816C47.8048 32.816 48.9888 32.528 50.3648 31.952V17.168C49.1488 16.464 47.9488 16.112 46.7648 16.112C44.9728 16.112 43.5648 16.768 42.5408 18.08C41.4208 19.52 40.8608 21.632 40.8608 24.416ZM55.3088 32C56.3968 32.544 57.5008 32.816 58.6208 32.816C60.4448 32.816 61.8848 32.112 62.9408 30.704C64.0608 29.232 64.6208 27.136 64.6208 24.416C64.6208 21.6 64.0768 19.488 62.9888 18.08C61.9648 16.768 60.5408 16.112 58.7168 16.112C57.6288 16.112 56.4928 16.432 55.3088 17.072V32ZM88.5109 36.8C87.3589 37.504 85.9669 37.856 84.3349 37.856C81.2949 37.856 78.8149 36.784 76.8949 34.64C74.7189 32.208 73.6309 28.8 73.6309 24.416C73.6309 20.128 74.7029 16.784 76.8469 14.384C78.7349 12.272 81.0869 11.216 83.9029 11.216C85.6949 11.216 87.2309 11.584 88.5109 12.32V0.704H94.2709V12.32C95.5509 11.584 97.0389 11.216 98.7349 11.216C101.583 11.216 103.951 12.272 105.839 14.384C107.983 16.784 109.055 20.128 109.055 24.416C109.055 28.832 107.967 32.24 105.791 34.64C103.839 36.784 101.327 37.856 98.2549 37.856C96.7509 37.856 95.4229 37.52 94.2709 36.848V47.984H88.5109V36.8ZM79.4389 24.416C79.4389 27.136 79.9989 29.232 81.1189 30.704C82.1749 32.112 83.5989 32.816 85.3909 32.816C86.3829 32.816 87.5669 32.528 88.9429 31.952V17.168C87.7269 16.464 86.5269 16.112 85.3429 16.112C83.5509 16.112 82.1429 16.768 81.1189 18.08C79.9989 19.52 79.4389 21.632 79.4389 24.416ZM93.8869 32C94.9749 32.544 96.0789 32.816 97.1989 32.816C99.0229 32.816 100.463 32.112 101.519 30.704C102.639 29.232 103.199 27.136 103.199 24.416C103.199 21.6 102.655 19.488 101.567 18.08C100.543 16.768 99.1189 16.112 97.2949 16.112C96.2069 16.112 95.0709 16.432 93.8869 17.072V32ZM125.217 37.856C121.377 37.856 118.289 36.624 115.953 34.16C113.617 31.696 112.449 28.464 112.449 24.464C112.449 20.624 113.633 17.456 116.001 14.96C118.369 12.464 121.377 11.216 125.025 11.216C128.545 11.216 131.409 12.432 133.617 14.864C135.857 17.328 136.977 20.512 136.977 24.416C136.977 25.344 136.961 26.032 136.929 26.48H118.353C118.641 28.4 119.361 29.936 120.513 31.088C121.793 32.336 123.473 32.96 125.553 32.96C128.721 32.8 131.089 31.744 132.657 29.792L135.969 33.152C134.945 34.528 133.473 35.648 131.553 36.512C129.569 37.408 127.457 37.856 125.217 37.856ZM118.305 22.208H131.217C131.153 20.416 130.529 18.928 129.345 17.744C128.161 16.56 126.721 15.968 125.025 15.968C123.233 15.968 121.729 16.544 120.513 17.696C119.297 18.848 118.561 20.352 118.305 22.208ZM141.734 37.424V11.696H147.494V21.824H151.334L157.622 11.696H164.294L155.846 24.032L164.63 37.424H157.862L151.382 26.72H147.494V37.424H141.734ZM174.406 37.424V16.592H165.91V11.696H188.71V16.592H180.214V37.424H174.406ZM192.54 37.424V11.696H198.3V29.072H198.444L209.388 11.696H215.148V37.424H209.388V20H209.196L198.3 37.424H192.54ZM221.421 37.424V11.696H233.709C236.365 11.696 238.429 12.256 239.901 13.376C241.405 14.528 242.157 16.144 242.157 18.224C242.157 20.912 240.925 22.848 238.461 24.032V24.128C241.405 25.152 242.925 27.12 243.021 30.032C243.021 32.464 242.157 34.32 240.429 35.6C238.797 36.816 236.637 37.424 233.949 37.424H221.421ZM227.181 33.104H232.413C235.549 33.104 237.117 31.984 237.117 29.744C237.085 27.472 235.501 26.304 232.365 26.24H227.181V33.104ZM227.181 22.304H231.789C234.765 22.304 236.253 21.264 236.253 19.184C236.253 17.072 234.749 16.016 231.741 16.016H227.181V22.304ZM264.517 37.424V26.768H253.525V37.424H247.765V11.696H253.525V21.872H264.517V11.696H270.325V37.424H264.517ZM287.624 11.216C290.632 11.216 293.08 12.048 294.968 13.712C296.984 15.472 297.992 17.856 297.992 20.864V37.424H292.616V33.92H292.472C291.832 35.008 290.808 35.92 289.4 36.656C287.832 37.456 286.12 37.856 284.264 37.856C281.864 37.856 279.816 37.136 278.12 35.696C276.36 34.192 275.48 32.272 275.48 29.936C275.48 27.376 276.488 25.328 278.504 23.792C280.456 22.32 282.968 21.584 286.04 21.584C288.312 21.584 290.376 21.968 292.232 22.736V20.96C292.232 19.36 291.752 18.128 290.792 17.264C289.864 16.432 288.616 16.016 287.048 16.016C284.52 16.016 282.344 17.12 280.52 19.328L276.92 16.016C278.104 14.576 279.576 13.44 281.336 12.608C283.288 11.68 285.384 11.216 287.624 11.216ZM281.336 29.504C281.336 30.688 281.736 31.616 282.536 32.288C283.336 32.96 284.456 33.296 285.896 33.296C287.592 33.296 289.064 32.8 290.312 31.808C291.592 30.784 292.232 29.52 292.232 28.016V26.624C290.696 25.856 288.776 25.472 286.472 25.472C285 25.472 283.8 25.808 282.872 26.48C281.848 27.216 281.336 28.224 281.336 29.504ZM318.504 37.424V28.448H313.608L309 37.424H302.856L307.992 27.776C306.264 27.168 304.952 26.176 304.056 24.8C303.192 23.488 302.76 21.904 302.76 20.048C302.76 17.424 303.672 15.36 305.496 13.856C307.224 12.416 309.48 11.696 312.264 11.696H324.312V37.424H318.504ZM308.712 20.144C308.712 21.328 309.08 22.24 309.816 22.88C310.552 23.52 311.608 23.84 312.984 23.84H318.504V16.496H312.984C310.168 16.624 308.744 17.84 308.712 20.144ZM3.312 94.424V68.696H8.784L17.136 83.864H17.232L25.632 68.696H31.056V94.424H25.296V78.488H25.2L18.528 91.112H15.84L9.168 78.488H9.072V94.424H3.312ZM54.4234 94.424V83.768H43.4314V94.424H37.6714V68.696H43.4314V78.872H54.4234V68.696H60.2314V94.424H54.4234ZM65.2425 81.56C65.2425 77.624 66.3945 74.424 68.6985 71.96C71.0345 69.464 74.1225 68.216 77.9625 68.216C81.8345 68.216 84.9385 69.464 87.2745 71.96C89.5785 74.392 90.7305 77.592 90.7305 81.56C90.7305 85.528 89.5785 88.728 87.2745 91.16C84.9385 93.624 81.8345 94.856 77.9625 94.856C74.0905 94.856 71.0025 93.624 68.6985 91.16C66.3945 88.728 65.2425 85.528 65.2425 81.56ZM71.2425 81.56C71.2425 83.992 71.8185 85.944 72.9705 87.416C74.1865 88.984 75.8505 89.768 77.9625 89.768C80.0745 89.768 81.7385 88.984 82.9545 87.416C84.1065 85.912 84.6825 83.96 84.6825 81.56C84.6825 79.16 84.1065 77.208 82.9545 75.704C81.7385 74.104 80.0745 73.304 77.9625 73.304C75.8505 73.304 74.1865 74.104 72.9705 75.704C71.8185 77.208 71.2425 79.16 71.2425 81.56ZM95.6558 94.424V68.696H113.032V73.592H101.416V94.424H95.6558ZM113.711 81.56C113.711 77.624 114.863 74.424 117.167 71.96C119.503 69.464 122.591 68.216 126.431 68.216C130.303 68.216 133.407 69.464 135.743 71.96C138.047 74.392 139.199 77.592 139.199 81.56C139.199 85.528 138.047 88.728 135.743 91.16C133.407 93.624 130.303 94.856 126.431 94.856C122.559 94.856 119.471 93.624 117.167 91.16C114.863 88.728 113.711 85.528 113.711 81.56ZM119.711 81.56C119.711 83.992 120.287 85.944 121.439 87.416C122.655 88.984 124.319 89.768 126.431 89.768C128.543 89.768 130.207 88.984 131.423 87.416C132.575 85.912 133.151 83.96 133.151 81.56C133.151 79.16 132.575 77.208 131.423 75.704C130.207 74.104 128.543 73.304 126.431 73.304C124.319 73.304 122.655 74.104 121.439 75.704C120.287 77.208 119.711 79.16 119.711 81.56ZM153.064 95C148.072 95 144.248 93.384 141.592 90.152L145.144 87.416C146.36 88.472 147.592 89.208 148.84 89.624C149.96 90.008 151.368 90.2 153.064 90.2C154.664 90.2 155.928 89.912 156.856 89.336C157.912 88.696 158.44 87.768 158.44 86.552C158.44 84.216 156.12 83.048 151.48 83.048H148.744V79.208H150.856C155.336 79.208 157.576 78.104 157.576 75.896C157.576 74.904 157.096 74.136 156.136 73.592C155.272 73.112 154.152 72.872 152.776 72.872C149.992 72.872 147.624 73.752 145.672 75.512L142.312 72.488C145.32 69.544 148.888 68.072 153.016 68.072C155.992 68.072 158.424 68.712 160.312 69.992C162.168 71.272 163.096 72.92 163.096 74.936C163.096 77.784 161.496 79.672 158.296 80.6V80.792C159.928 81.08 161.24 81.72 162.232 82.712C163.352 83.832 163.912 85.256 163.912 86.984C163.912 89.32 162.856 91.256 160.744 92.792C158.696 94.264 156.136 95 153.064 95ZM179.671 68.216C182.679 68.216 185.127 69.048 187.015 70.712C189.031 72.472 190.039 74.856 190.039 77.864V94.424H184.663V90.92H184.519C183.879 92.008 182.855 92.92 181.447 93.656C179.879 94.456 178.167 94.856 176.311 94.856C173.911 94.856 171.863 94.136 170.167 92.696C168.407 91.192 167.527 89.272 167.527 86.936C167.527 84.376 168.535 82.328 170.551 80.792C172.503 79.32 175.015 78.584 178.087 78.584C180.359 78.584 182.423 78.968 184.279 79.736V77.96C184.279 76.36 183.799 75.128 182.839 74.264C181.911 73.432 180.663 73.016 179.095 73.016C176.567 73.016 174.391 74.12 172.567 76.328L168.967 73.016C170.151 71.576 171.623 70.44 173.383 69.608C175.335 68.68 177.431 68.216 179.671 68.216ZM173.383 86.504C173.383 87.688 173.783 88.616 174.583 89.288C175.383 89.96 176.503 90.296 177.943 90.296C179.639 90.296 181.111 89.8 182.359 88.808C183.639 87.784 184.279 86.52 184.279 85.016V83.624C182.743 82.856 180.823 82.472 178.519 82.472C177.047 82.472 175.847 82.808 174.919 83.48C173.895 84.216 173.383 85.224 173.383 86.504ZM193.758 102.296V89.72H197.166C198.158 88.472 198.846 86.984 199.23 85.256C199.55 83.784 199.71 81.656 199.71 78.872V68.696H219.582V89.72H223.422V102.296H217.854V94.424H199.374V102.296H193.758ZM203.118 89.72H213.774V73.592H205.182V79.4C205.182 83.944 204.494 87.384 203.118 89.72ZM238.124 68.216C241.132 68.216 243.58 69.048 245.468 70.712C247.484 72.472 248.492 74.856 248.492 77.864V94.424H243.116V90.92H242.972C242.332 92.008 241.308 92.92 239.9 93.656C238.332 94.456 236.62 94.856 234.764 94.856C232.364 94.856 230.316 94.136 228.62 92.696C226.86 91.192 225.98 89.272 225.98 86.936C225.98 84.376 226.988 82.328 229.004 80.792C230.956 79.32 233.468 78.584 236.54 78.584C238.812 78.584 240.876 78.968 242.732 79.736V77.96C242.732 76.36 242.252 75.128 241.292 74.264C240.364 73.432 239.116 73.016 237.548 73.016C235.02 73.016 232.844 74.12 231.02 76.328L227.42 73.016C228.604 71.576 230.076 70.44 231.836 69.608C233.788 68.68 235.884 68.216 238.124 68.216ZM231.836 86.504C231.836 87.688 232.236 88.616 233.036 89.288C233.836 89.96 234.956 90.296 236.396 90.296C238.092 90.296 239.564 89.8 240.812 88.808C242.092 87.784 242.732 86.52 242.732 85.016V83.624C241.196 82.856 239.276 82.472 236.972 82.472C235.5 82.472 234.3 82.808 233.372 83.48C232.348 84.216 231.836 85.224 231.836 86.504ZM270.828 94.424V84.584H270.732C268.588 86.76 266.076 87.864 263.196 87.896C260.348 87.896 258.044 87.032 256.284 85.304C254.46 83.512 253.548 81.096 253.548 78.056V68.696H259.308V77.096C259.308 78.92 259.74 80.344 260.604 81.368C261.468 82.392 262.7 82.904 264.3 82.904C266.156 82.904 267.66 82.36 268.812 81.272C270.06 80.088 270.684 78.488 270.684 76.472V68.696H276.444V94.424H270.828ZM300.095 94.424V83.768H289.103V94.424H283.343V68.696H289.103V78.872H300.095V68.696H305.903V94.424H300.095ZM310.914 81.56C310.914 77.624 312.066 74.424 314.37 71.96C316.706 69.464 319.794 68.216 323.634 68.216C327.506 68.216 330.61 69.464 332.946 71.96C335.25 74.392 336.402 77.592 336.402 81.56C336.402 85.528 335.25 88.728 332.946 91.16C330.61 93.624 327.506 94.856 323.634 94.856C319.762 94.856 316.674 93.624 314.37 91.16C312.066 88.728 310.914 85.528 310.914 81.56ZM316.914 81.56C316.914 83.992 317.49 85.944 318.642 87.416C319.858 88.984 321.522 89.768 323.634 89.768C325.746 89.768 327.41 88.984 328.626 87.416C329.778 85.912 330.354 83.96 330.354 81.56C330.354 79.16 329.778 77.208 328.626 75.704C327.41 74.104 325.746 73.304 323.634 73.304C321.522 73.304 319.858 74.104 318.642 75.704C317.49 77.208 316.914 79.16 316.914 81.56ZM352.752 68.216C356.944 68.408 360.24 69.896 362.64 72.68L358.992 76.184C357.392 74.264 355.376 73.304 352.944 73.304C350.704 73.304 348.96 74.04 347.712 75.512C346.464 76.984 345.84 78.968 345.84 81.464C345.84 84.024 346.432 86.04 347.616 87.512C348.832 89.016 350.56 89.768 352.8 89.768C355.52 89.768 357.808 88.504 359.664 85.976L363.216 89.384C362.224 90.952 360.832 92.232 359.04 93.224C357.056 94.312 354.896 94.856 352.56 94.856C348.752 94.856 345.664 93.592 343.296 91.064C340.992 88.6 339.84 85.416 339.84 81.512C339.84 77.704 341.008 74.552 343.344 72.056C345.744 69.496 348.88 68.216 352.752 68.216ZM372.546 94.424V73.592H364.05V68.696H386.85V73.592H378.354V94.424H372.546ZM390.968 94.424V68.696H396.728V75.896H402.44C405.384 75.896 407.688 76.584 409.352 77.96C411.24 79.528 412.184 81.944 412.184 85.208C412.184 88.184 411.288 90.488 409.496 92.12C407.832 93.656 405.544 94.424 402.632 94.424H390.968ZM396.728 89.72H401.192C402.888 89.72 404.136 89.4 404.936 88.76C405.832 88.056 406.28 86.92 406.28 85.352C406.312 83.592 405.864 82.36 404.936 81.656C404.168 81.048 402.92 80.744 401.192 80.744H396.728V89.72Z" fill="url(#paint0_linear_78_93)"/>
<defs>
<linearGradient id="paint0_linear_78_93" x1="66.5" y1="14.5" x2="112.612" y2="138.149" gradientUnits="userSpaceOnUse">
<stop offset="0.0600436" stop-color="#004F46"/>
<stop offset="0.934978" stop-color="#037F75"/>
</linearGradient>
</defs>
</svg>
