<svg width="501" height="32" viewBox="0 0 501 32" fill="none" xmlns="http://www.w3.org/2000/svg">
<path d="M10.1678 25.128C8.03442 25.128 6.11442 24.6053 4.40775 23.56C2.72242 22.5147 1.55975 21.1707 0.91975 19.528L3.99175 17.864C4.56775 18.888 5.33575 19.72 6.29575 20.36C7.38375 21.064 8.63175 21.416 10.0398 21.416C11.8744 21.416 13.4424 20.7867 14.7438 19.528C15.9811 18.2693 16.7278 16.5627 16.9838 14.408H6.26375V10.888H16.9198C16.5998 8.776 15.8318 7.144 14.6158 5.992C13.4211 4.86133 11.9598 4.296 10.2318 4.296C8.95175 4.296 7.84242 4.50933 6.90375 4.936C5.96508 5.32 5.06908 5.94933 4.21575 6.824L1.59175 4.2C2.53042 3.112 3.76775 2.23733 5.30375 1.576C6.75442 0.914666 8.37575 0.584 10.1678 0.584C13.4318 0.626666 16.0878 1.74667 18.1358 3.944C20.2264 6.16267 21.2931 9.13867 21.3358 12.872C21.3144 16.4773 20.2584 19.432 18.1678 21.736C16.0984 23.9333 13.4318 25.064 10.1678 25.128ZM33.6323 24.2C33.1843 24.4347 32.7469 24.616 32.3203 24.744C31.8296 24.8507 31.3389 24.904 30.8483 24.904C28.8216 24.904 27.1683 24.1787 25.8883 22.728C24.4376 21.1493 23.7122 18.888 23.7122 15.944C23.7122 13.0427 24.4269 10.8133 25.8563 9.256C27.0723 7.848 28.6403 7.144 30.5603 7.144C31.2216 7.144 31.7656 7.19733 32.1923 7.304C32.7043 7.432 33.1843 7.624 33.6323 7.88V0.136H37.4723V7.88C37.9416 7.624 38.4109 7.432 38.8803 7.304C39.2856 7.19733 39.8083 7.144 40.4483 7.144C42.3683 7.144 43.9469 7.848 45.1843 9.256C46.6136 10.856 47.3283 13.0853 47.3283 15.944C47.3283 18.8667 46.6029 21.1387 45.1523 22.76C43.8509 24.1893 42.1763 24.904 40.1283 24.904C39.6589 24.904 39.1896 24.8507 38.7203 24.744C38.2296 24.616 37.8136 24.4453 37.4723 24.232V31.656H33.6323V24.2ZM27.6483 15.944C27.6483 17.736 28.0216 19.1333 28.7683 20.136C29.4509 21.0747 30.3789 21.544 31.5523 21.544C31.8936 21.544 32.3096 21.4907 32.8003 21.384C33.1629 21.256 33.5149 21.1173 33.8563 20.968V11.112C33.4936 10.8773 33.1309 10.7067 32.7683 10.6C32.3629 10.472 31.9469 10.408 31.5203 10.408C30.3256 10.408 29.4083 10.8347 28.7683 11.688C28.0216 12.6693 27.6483 14.088 27.6483 15.944ZM37.2803 21C37.6216 21.1707 37.9523 21.2987 38.2723 21.384C38.6563 21.4907 39.0403 21.544 39.4243 21.544C40.5976 21.544 41.5363 21.0747 42.2403 20.136C42.9869 19.1333 43.3603 17.736 43.3603 15.944C43.3603 14.088 42.9976 12.68 42.2723 11.72C41.6109 10.8453 40.6829 10.408 39.4883 10.408C39.0189 10.408 38.6243 10.4613 38.3043 10.568C37.9629 10.6533 37.6216 10.8133 37.2803 11.048V21ZM59.351 24.2C58.903 24.4347 58.4657 24.616 58.039 24.744C57.5483 24.8507 57.0577 24.904 56.567 24.904C54.5403 24.904 52.887 24.1787 51.607 22.728C50.1563 21.1493 49.431 18.888 49.431 15.944C49.431 13.0427 50.1457 10.8133 51.575 9.256C52.791 7.848 54.359 7.144 56.279 7.144C56.9403 7.144 57.4843 7.19733 57.911 7.304C58.423 7.432 58.903 7.624 59.351 7.88V0.136H63.191V7.88C63.6603 7.624 64.1297 7.432 64.599 7.304C65.0043 7.19733 65.527 7.144 66.167 7.144C68.087 7.144 69.6657 7.848 70.903 9.256C72.3323 10.856 73.047 13.0853 73.047 15.944C73.047 18.8667 72.3217 21.1387 70.871 22.76C69.5697 24.1893 67.895 24.904 65.847 24.904C65.3777 24.904 64.9083 24.8507 64.439 24.744C63.9483 24.616 63.5323 24.4453 63.191 24.232V31.656H59.351V24.2ZM53.367 15.944C53.367 17.736 53.7403 19.1333 54.487 20.136C55.1697 21.0747 56.0977 21.544 57.271 21.544C57.6123 21.544 58.0283 21.4907 58.519 21.384C58.8817 21.256 59.2337 21.1173 59.575 20.968V11.112C59.2123 10.8773 58.8497 10.7067 58.487 10.6C58.0817 10.472 57.6657 10.408 57.239 10.408C56.0443 10.408 55.127 10.8347 54.487 11.688C53.7403 12.6693 53.367 14.088 53.367 15.944ZM62.999 21C63.3403 21.1707 63.671 21.2987 63.991 21.384C64.375 21.4907 64.759 21.544 65.143 21.544C66.3163 21.544 67.255 21.0747 67.959 20.136C68.7057 19.1333 69.079 17.736 69.079 15.944C69.079 14.088 68.7163 12.68 67.991 11.72C67.3297 10.8453 66.4017 10.408 65.207 10.408C64.7377 10.408 64.343 10.4613 64.023 10.568C63.6817 10.6533 63.3403 10.8133 62.999 11.048V21ZM83.8218 24.904C81.3044 24.904 79.2564 24.0827 77.6778 22.44C76.0991 20.7973 75.3098 18.6427 75.3098 15.976C75.3098 13.3947 76.0991 11.2827 77.6778 9.64C79.2138 7.976 81.2191 7.144 83.6938 7.144C86.0404 7.144 87.9498 7.96533 89.4218 9.608C90.9151 11.2293 91.6618 13.3413 91.6618 15.944C91.6618 16.4133 91.6511 16.872 91.6298 17.32H79.2138C79.3844 18.6 79.8644 19.624 80.6538 20.392C81.4858 21.224 82.6164 21.64 84.0458 21.64C84.9631 21.64 85.8804 21.4373 86.7978 21.032C87.5658 20.648 88.2271 20.1467 88.7818 19.528L90.9897 21.768C90.2644 22.664 89.2831 23.4107 88.0458 24.008C86.7658 24.5627 85.3578 24.8613 83.8218 24.904ZM79.2138 14.472H87.8218C87.7578 13.2347 87.3418 12.232 86.5738 11.464C85.7844 10.696 84.8244 10.312 83.6938 10.312C82.4991 10.312 81.4964 10.696 80.6858 11.464C79.8538 12.1893 79.3631 13.192 79.2138 14.472ZM94.833 24.616V7.464H98.673V14.216H101.233L105.425 7.464H109.873L104.241 15.688L110.097 24.616H105.585L101.265 17.48H98.673V24.616H94.833ZM116.55 24.616V10.728H110.886V7.464H126.086V10.728H120.422V24.616H116.55ZM128.579 24.616V7.464H132.419V19.048H132.515L139.811 7.464H143.651V24.616H139.811V13H139.683L132.419 24.616H128.579ZM147.833 24.616V7.464H155.769C157.518 7.464 158.894 7.83733 159.897 8.584C160.9 9.352 161.401 10.4293 161.401 11.816C161.401 13.5867 160.58 14.8773 158.937 15.688V15.752C159.918 16.072 160.665 16.5733 161.177 17.256C161.668 17.8747 161.934 18.6853 161.977 19.688C161.977 21.3093 161.401 22.5467 160.249 23.4C159.14 24.2107 157.7 24.616 155.929 24.616H147.833ZM151.673 21.672H155.033C155.972 21.6507 156.708 21.4693 157.241 21.128C157.732 20.744 157.988 20.2 158.009 19.496C158.009 18.792 157.742 18.2373 157.209 17.832C156.676 17.4267 155.94 17.224 155.001 17.224H151.673V21.672ZM151.673 14.472H154.777C155.609 14.472 156.26 14.3013 156.729 13.96C157.198 13.5973 157.433 13.1067 157.433 12.488C157.433 11.8267 157.22 11.336 156.793 11.016C156.324 10.6107 155.641 10.408 154.745 10.408H151.673V14.472ZM176.345 24.616V17.512H169.017V24.616H165.177V7.464H169.017V14.248H176.345V7.464H180.217V24.616H176.345ZM191.845 7.144C193.851 7.144 195.483 7.69867 196.742 8.808C198.086 9.96 198.758 11.5493 198.758 13.576V24.616H195.174V22.28H195.078C194.63 23.0053 193.947 23.6133 193.03 24.104C191.963 24.6373 190.822 24.904 189.606 24.904C187.984 24.904 186.619 24.4347 185.51 23.496C184.336 22.472 183.75 21.1813 183.75 19.624C183.75 17.9173 184.422 16.552 185.766 15.528C187.024 14.5467 188.699 14.056 190.79 14.056C192.262 14.056 193.648 14.312 194.95 14.824V13.64C194.928 12.5733 194.598 11.752 193.958 11.176C193.339 10.6213 192.507 10.344 191.462 10.344C189.776 10.344 188.336 11.08 187.141 12.552L184.71 10.344C185.499 9.36267 186.491 8.60533 187.686 8.072C188.923 7.45333 190.31 7.144 191.845 7.144ZM187.686 19.336C187.686 20.1253 187.952 20.744 188.486 21.192C188.998 21.6187 189.734 21.8427 190.694 21.864C191.803 21.864 192.784 21.5333 193.638 20.872C194.512 20.168 194.95 19.3253 194.95 18.344V17.416C193.968 16.9467 192.688 16.6907 191.11 16.648C190.064 16.648 189.254 16.872 188.678 17.32C188.016 17.7893 187.686 18.4613 187.686 19.336ZM212.336 24.616V18.632H209.104L206 24.616H201.904L205.392 18.152C204.176 17.7253 203.28 17.0747 202.704 16.2C202.128 15.304 201.84 14.248 201.84 13.032C201.84 11.2827 202.448 9.896 203.664 8.872C204.795 7.93333 206.299 7.464 208.176 7.464H216.208V24.616H212.336ZM205.808 13.096C205.808 13.8853 206.054 14.4933 206.544 14.92C207.035 15.3253 207.739 15.5387 208.656 15.56H212.336V10.664H208.656C207.76 10.664 207.056 10.888 206.544 11.336C206.054 11.7627 205.808 12.3493 205.808 13.096ZM229.021 24.616V7.464H232.669L238.237 17.576H238.301L243.901 7.464H247.517V24.616H243.677V14.056H243.613L239.165 22.408H237.373L232.893 14.056H232.861V24.616H229.021ZM263.095 24.616V17.512H255.767V24.616H251.927V7.464H255.767V14.248H263.095V7.464H266.967V24.616H263.095ZM270.308 16.04C270.308 13.3733 271.076 11.24 272.612 9.64C274.19 7.976 276.249 7.144 278.788 7.144C281.348 7.144 283.406 7.976 284.964 9.64C286.521 11.304 287.3 13.4373 287.3 16.04C287.3 18.6427 286.532 20.776 284.996 22.44C283.417 24.0827 281.348 24.904 278.788 24.904C276.206 24.904 274.148 24.0827 272.612 22.44C271.076 20.776 270.308 18.6427 270.308 16.04ZM274.308 16.04C274.308 17.6187 274.692 18.92 275.46 19.944C276.27 20.9893 277.38 21.512 278.788 21.512C280.153 21.512 281.262 20.9893 282.116 19.944C282.884 18.92 283.268 17.6187 283.268 16.04C283.268 14.3973 282.884 13.096 282.116 12.136C281.305 11.0693 280.196 10.536 278.788 10.536C277.358 10.536 276.249 11.0693 275.46 12.136C274.692 13.096 274.308 14.3973 274.308 16.04ZM290.583 24.616V7.464H302.167V10.728H294.423V24.616H290.583ZM302.62 16.04C302.62 13.3733 303.388 11.24 304.924 9.64C306.503 7.976 308.561 7.144 311.1 7.144C313.66 7.144 315.719 7.976 317.276 9.64C318.833 11.304 319.612 13.4373 319.612 16.04C319.612 18.6427 318.844 20.776 317.308 22.44C315.729 24.0827 313.66 24.904 311.1 24.904C308.519 24.904 306.46 24.0827 304.924 22.44C303.388 20.776 302.62 18.6427 302.62 16.04ZM306.62 16.04C306.62 17.6187 307.004 18.92 307.772 19.944C308.583 20.9893 309.692 21.512 311.1 21.512C312.465 21.512 313.575 20.9893 314.428 19.944C315.196 18.92 315.58 17.6187 315.58 16.04C315.58 14.3973 315.196 13.096 314.428 12.136C313.617 11.0693 312.508 10.536 311.1 10.536C309.671 10.536 308.561 11.0693 307.772 12.136C307.004 13.096 306.62 14.3973 306.62 16.04ZM328.407 24.968C326.828 24.968 325.399 24.6907 324.119 24.136C322.839 23.56 321.826 22.7173 321.079 21.608L323.543 19.72C324.183 20.4027 324.908 20.904 325.719 21.224C326.402 21.5227 327.266 21.672 328.311 21.672C329.314 21.672 330.135 21.48 330.775 21.096C331.458 20.648 331.799 20.0507 331.799 19.304C331.799 18.4933 331.372 17.896 330.519 17.512C329.751 17.192 328.738 17.032 327.479 17.032H325.591V14.472H327.063C328.364 14.472 329.378 14.28 330.103 13.896C330.85 13.512 331.223 12.968 331.223 12.264C331.223 11.624 330.914 11.144 330.295 10.824C329.783 10.5253 329.068 10.376 328.151 10.376C327.276 10.376 326.487 10.5147 325.783 10.792C325.058 11.0693 324.396 11.5067 323.799 12.104L321.463 10.024C322.252 9.10667 323.234 8.40267 324.407 7.912C325.644 7.35733 326.978 7.08 328.407 7.08C330.391 7.08 332.002 7.496 333.239 8.328C334.476 9.18133 335.095 10.28 335.095 11.624C335.095 13.5227 333.986 14.7813 331.767 15.4V15.528C332.94 15.72 333.847 16.1573 334.487 16.84C335.255 17.5867 335.639 18.5467 335.639 19.72C335.639 21.256 334.956 22.5147 333.591 23.496C332.226 24.4773 330.498 24.968 328.407 24.968ZM346.095 7.144C348.101 7.144 349.733 7.69867 350.992 8.808C352.336 9.96 353.008 11.5493 353.008 13.576V24.616H349.424V22.28H349.328C348.88 23.0053 348.197 23.6133 347.28 24.104C346.213 24.6373 345.072 24.904 343.856 24.904C342.234 24.904 340.869 24.4347 339.76 23.496C338.586 22.472 338 21.1813 338 19.624C338 17.9173 338.672 16.552 340.016 15.528C341.274 14.5467 342.949 14.056 345.04 14.056C346.512 14.056 347.898 14.312 349.2 14.824V13.64C349.178 12.5733 348.848 11.752 348.208 11.176C347.589 10.6213 346.757 10.344 345.712 10.344C344.026 10.344 342.586 11.08 341.391 12.552L338.96 10.344C339.749 9.36267 340.741 8.60533 341.936 8.072C343.173 7.45333 344.56 7.144 346.095 7.144ZM341.936 19.336C341.936 20.1253 342.202 20.744 342.736 21.192C343.248 21.6187 343.984 21.8427 344.944 21.864C346.053 21.864 347.034 21.5333 347.888 20.872C348.762 20.168 349.2 19.3253 349.2 18.344V17.416C348.218 16.9467 346.938 16.6907 345.36 16.648C344.314 16.648 343.504 16.872 342.928 17.32C342.266 17.7893 341.936 18.4613 341.936 19.336ZM355.391 29.864V21.48H357.663C358.303 20.648 358.751 19.656 359.007 18.504C359.241 17.4373 359.359 16.0187 359.359 14.248V7.464H372.607V21.48H375.167V29.864H371.455V24.616H359.135V29.864H355.391ZM361.631 21.48H368.735V10.728H363.007V14.6C363.007 17.6293 362.548 19.9227 361.631 21.48ZM385.064 7.144C387.07 7.144 388.702 7.69867 389.96 8.808C391.304 9.96 391.976 11.5493 391.976 13.576V24.616H388.392V22.28H388.296C387.848 23.0053 387.166 23.6133 386.248 24.104C385.182 24.6373 384.04 24.904 382.824 24.904C381.203 24.904 379.838 24.4347 378.728 23.496C377.555 22.472 376.968 21.1813 376.968 19.624C376.968 17.9173 377.64 16.552 378.984 15.528C380.243 14.5467 381.918 14.056 384.008 14.056C385.48 14.056 386.867 14.312 388.168 14.824V13.64C388.147 12.5733 387.816 11.752 387.176 11.176C386.558 10.6213 385.726 10.344 384.68 10.344C382.995 10.344 381.555 11.08 380.36 12.552L377.928 10.344C378.718 9.36267 379.71 8.60533 380.904 8.072C382.142 7.45333 383.528 7.144 385.064 7.144ZM380.904 19.336C380.904 20.1253 381.171 20.744 381.704 21.192C382.216 21.6187 382.952 21.8427 383.912 21.864C385.022 21.864 386.003 21.5333 386.856 20.872C387.731 20.168 388.168 19.3253 388.168 18.344V17.416C387.187 16.9467 385.907 16.6907 384.328 16.648C383.283 16.648 382.472 16.872 381.896 17.32C381.235 17.7893 380.904 18.4613 380.904 19.336ZM406.771 24.616V18.056H406.707C406.131 18.7387 405.384 19.2827 404.467 19.688C403.571 20.072 402.664 20.264 401.747 20.264C399.806 20.264 398.259 19.688 397.107 18.536C395.87 17.32 395.251 15.7093 395.251 13.704V7.464H399.091V13C399.091 14.2587 399.379 15.2187 399.955 15.88C400.531 16.584 401.374 16.936 402.483 16.936C403.678 16.936 404.67 16.5733 405.459 15.848C406.27 15.0373 406.675 13.9707 406.675 12.648V7.464H410.515V24.616H406.771ZM426.189 24.616V17.512H418.861V24.616H415.021V7.464H418.861V14.248H426.189V7.464H430.061V24.616H426.189ZM433.401 16.04C433.401 13.3733 434.169 11.24 435.705 9.64C437.284 7.976 439.343 7.144 441.881 7.144C444.441 7.144 446.5 7.976 448.057 9.64C449.615 11.304 450.393 13.4373 450.393 16.04C450.393 18.6427 449.625 20.776 448.089 22.44C446.511 24.0827 444.441 24.904 441.881 24.904C439.3 24.904 437.241 24.0827 435.705 22.44C434.169 20.776 433.401 18.6427 433.401 16.04ZM437.401 16.04C437.401 17.6187 437.785 18.92 438.553 19.944C439.364 20.9893 440.473 21.512 441.881 21.512C443.247 21.512 444.356 20.9893 445.209 19.944C445.977 18.92 446.361 17.6187 446.361 16.04C446.361 14.3973 445.977 13.096 445.209 12.136C444.399 11.0693 443.289 10.536 441.881 10.536C440.452 10.536 439.343 11.0693 438.553 12.136C437.785 13.096 437.401 14.3973 437.401 16.04ZM461.325 7.144C462.626 7.144 463.863 7.42133 465.037 7.976C466.167 8.488 467.127 9.20267 467.917 10.12L465.485 12.456C465.037 11.9013 464.482 11.464 463.821 11.144C463.074 10.7387 462.285 10.536 461.453 10.536C459.959 10.536 458.797 11.0267 457.965 12.008C457.133 12.968 456.717 14.2907 456.717 15.976C456.717 17.6613 457.111 18.9947 457.901 19.976C458.733 21 459.885 21.512 461.357 21.512C462.338 21.512 463.245 21.256 464.077 20.744C464.738 20.296 465.357 19.7093 465.933 18.984L468.301 21.256C467.618 22.3013 466.679 23.1547 465.485 23.816C464.141 24.5413 462.711 24.904 461.197 24.904C458.637 24.904 456.567 24.0613 454.989 22.376C453.474 20.776 452.717 18.6533 452.717 16.008C452.717 13.4267 453.495 11.3147 455.053 9.672C456.653 7.98667 458.743 7.144 461.325 7.144ZM474.394 24.616V10.728H468.73V7.464H483.93V10.728H478.266V24.616H474.394ZM486.614 24.616V7.464H490.454V12.264H494.262C496.246 12.264 497.782 12.712 498.87 13.608C500.129 14.632 500.758 16.2533 500.758 18.472C500.758 20.4347 500.172 21.9707 498.998 23.08C497.846 24.104 496.31 24.616 494.39 24.616H486.614ZM490.454 21.48H493.43C494.518 21.48 495.35 21.256 495.926 20.808C496.524 20.3173 496.822 19.5707 496.822 18.568C496.822 17.3733 496.524 16.552 495.926 16.104C495.436 15.6987 494.604 15.496 493.43 15.496H490.454V21.48Z" fill="url(#paint0_linear_78_411)"/>
<defs>
<linearGradient id="paint0_linear_78_411" x1="56.0876" y1="1.83333" x2="60.7129" y2="48.3216" gradientUnits="userSpaceOnUse">
<stop offset="0.0600436" stop-color="#004F46"/>
<stop offset="0.934978" stop-color="#037F75"/>
</linearGradient>
</defs>
</svg>
