<svg width="540" height="26" viewBox="0 0 540 26" fill="none" xmlns="http://www.w3.org/2000/svg">
<path d="M0.1 1.325H11.75V3.675H2.825V8.425H7.075C9.225 8.425 10.8333 8.94167 11.9 9.975C12.8833 10.925 13.375 12.2667 13.375 14C13.375 15.9333 12.7333 17.3917 11.45 18.375C10.2833 19.2583 8.675 19.7 6.625 19.7H0.1V1.325ZM2.825 17.35H6.55C7.95 17.35 8.96667 17.1 9.6 16.6C10.2833 16.0667 10.625 15.175 10.625 13.925C10.625 12.775 10.225 11.9417 9.425 11.425C8.775 11.0083 7.85 10.8 6.65 10.8H2.825V17.35ZM29.1742 19.7V6.3H31.7492V19.7H29.1742ZM16.4992 19.7V6.3H19.0992V10.225H22.1242C25.4409 10.225 27.0992 11.825 27.0992 15.025C27.0992 16.575 26.6409 17.7583 25.7242 18.575C24.8909 19.325 23.7409 19.7 22.2742 19.7H16.4992ZM19.0992 17.55H21.5992C22.5492 17.55 23.2576 17.3583 23.7242 16.975C24.2076 16.575 24.4576 15.9333 24.4742 15.05C24.4909 14.0167 24.2409 13.3 23.7242 12.9C23.3076 12.5667 22.5992 12.4 21.5992 12.4H19.0992V17.55ZM41.3213 6.05C42.3213 6.05 43.2796 6.25833 44.1963 6.675C45.0463 7.05833 45.7546 7.58333 46.3213 8.25L44.6963 9.825C43.7796 8.84167 42.6713 8.35 41.3713 8.35C40.1046 8.35 39.113 8.75833 38.3963 9.575C37.6796 10.3917 37.3213 11.5167 37.3213 12.95C37.3213 14.3833 37.663 15.5167 38.3463 16.35C39.0463 17.2 40.0296 17.625 41.2963 17.625C42.7463 17.625 43.9963 16.9583 45.0463 15.625L46.6213 17.175C46.138 17.9417 45.438 18.575 44.5213 19.075C43.488 19.6417 42.3796 19.925 41.1963 19.925C39.1963 19.925 37.5963 19.2833 36.3963 18C35.213 16.7333 34.6213 15.05 34.6213 12.95C34.6213 10.9333 35.2296 9.28333 36.4463 8C37.6796 6.7 39.3046 6.05 41.3213 6.05ZM51.609 19.7V8.5H47.034V6.3H58.759V8.5H54.184V19.7H51.609ZM61.0305 25.2V6.3H63.4555V8.35H63.5055C63.9388 7.7 64.5221 7.16667 65.2555 6.75C66.0721 6.28333 66.9471 6.05 67.8805 6.05C69.5971 6.05 71.0055 6.65 72.1055 7.85C73.2721 9.11667 73.8555 10.8083 73.8555 12.925C73.8555 15.0917 73.2388 16.825 72.0055 18.125C70.8555 19.325 69.4221 19.925 67.7055 19.925C66.9055 19.925 66.1221 19.7333 65.3555 19.35C64.6888 19.0167 64.1388 18.5917 63.7055 18.075H63.6305V25.2H61.0305ZM63.5055 13.075C63.5055 14.3917 63.8638 15.475 64.5805 16.325C65.3138 17.1917 66.2471 17.625 67.3805 17.625C68.4805 17.625 69.3805 17.2083 70.0805 16.375C70.7971 15.525 71.1555 14.4 71.1555 13C71.1555 11.55 70.7888 10.4 70.0555 9.55C69.3555 8.75 68.4555 8.35 67.3555 8.35C66.3221 8.35 65.4471 8.74167 64.7305 9.525C63.9138 10.4083 63.5055 11.5917 63.5055 13.075ZM81.8125 6.05C83.3292 6.05 84.5708 6.475 85.5375 7.325C86.5542 8.225 87.0625 9.45833 87.0625 11.025V19.7H84.6625V17.9H84.5875C84.2208 18.4667 83.6792 18.9333 82.9625 19.3C82.1458 19.7167 81.2208 19.925 80.1875 19.925C78.9208 19.925 77.8542 19.5583 76.9875 18.825C76.0708 18.0583 75.6125 17.0583 75.6125 15.825C75.6125 14.4583 76.1292 13.375 77.1625 12.575C78.1458 11.8083 79.4375 11.425 81.0375 11.425C82.2875 11.425 83.4458 11.6417 84.5125 12.075V11.1C84.5125 10.1833 84.2375 9.475 83.6875 8.975C83.1708 8.50833 82.4875 8.275 81.6375 8.275C80.2042 8.275 78.9708 8.89167 77.9375 10.125L76.2875 8.525C76.8875 7.80833 77.6542 7.225 78.5875 6.775C79.6042 6.29167 80.6792 6.05 81.8125 6.05ZM78.2875 15.65C78.2875 16.3 78.5125 16.8167 78.9625 17.2C79.4292 17.5833 80.0542 17.775 80.8375 17.775C81.8375 17.775 82.6875 17.5 83.3875 16.95C84.1375 16.3667 84.5125 15.6167 84.5125 14.7V14C83.6125 13.55 82.5042 13.325 81.1875 13.325C80.3708 13.325 79.6958 13.5167 79.1625 13.9C78.5792 14.3167 78.2875 14.9 78.2875 15.65ZM98.0227 19.7V14.875H95.1227L92.5227 19.7H89.7227L92.5727 14.575C91.6227 14.275 90.906 13.775 90.4227 13.075C89.956 12.3917 89.7227 11.5583 89.7227 10.575C89.7227 9.19167 90.1977 8.11667 91.1477 7.35C92.031 6.65 93.206 6.3 94.6727 6.3H100.598V19.7H98.0227ZM92.3977 10.575C92.4143 11.975 93.231 12.7 94.8477 12.75H98.0227V8.475H94.8477C94.0643 8.475 93.456 8.675 93.0227 9.075C92.606 9.45833 92.3977 9.95833 92.3977 10.575ZM115.288 20C112.888 20 110.988 19.1917 109.588 17.575L111.213 16.25C111.863 16.8167 112.513 17.2167 113.163 17.45C113.779 17.6667 114.521 17.775 115.388 17.775C116.221 17.775 116.888 17.6083 117.388 17.275C117.954 16.8917 118.238 16.35 118.238 15.65C118.238 14.3 116.988 13.625 114.488 13.625H113.063V11.725H114.263C115.346 11.725 116.196 11.5667 116.813 11.25C117.463 10.9167 117.788 10.45 117.788 9.85C117.788 9.3 117.529 8.875 117.013 8.575C116.546 8.30833 115.954 8.175 115.238 8.175C113.804 8.175 112.563 8.65 111.513 9.6L109.963 8.15C111.513 6.68333 113.304 5.95 115.338 5.95C116.754 5.95 117.929 6.275 118.863 6.925C119.813 7.59167 120.288 8.45833 120.288 9.525C120.288 10.275 120.046 10.9083 119.563 11.425C119.113 11.8917 118.496 12.2333 117.713 12.45V12.525C118.579 12.6917 119.288 13.0417 119.838 13.575C120.438 14.175 120.738 14.9417 120.738 15.875C120.738 17.0917 120.221 18.0833 119.188 18.85C118.154 19.6167 116.854 20 115.288 20ZM129.054 6.05C130.57 6.05 131.812 6.475 132.779 7.325C133.795 8.225 134.304 9.45833 134.304 11.025V19.7H131.904V17.9H131.829C131.462 18.4667 130.92 18.9333 130.204 19.3C129.387 19.7167 128.462 19.925 127.429 19.925C126.162 19.925 125.095 19.5583 124.229 18.825C123.312 18.0583 122.854 17.0583 122.854 15.825C122.854 14.4583 123.37 13.375 124.404 12.575C125.387 11.8083 126.679 11.425 128.279 11.425C129.529 11.425 130.687 11.6417 131.754 12.075V11.1C131.754 10.1833 131.479 9.475 130.929 8.975C130.412 8.50833 129.729 8.275 128.879 8.275C127.445 8.275 126.212 8.89167 125.179 10.125L123.529 8.525C124.129 7.80833 124.895 7.225 125.829 6.775C126.845 6.29167 127.92 6.05 129.054 6.05ZM125.529 15.65C125.529 16.3 125.754 16.8167 126.204 17.2C126.67 17.5833 127.295 17.775 128.079 17.775C129.079 17.775 129.929 17.5 130.629 16.95C131.379 16.3667 131.754 15.6167 131.754 14.7V14C130.854 13.55 129.745 13.325 128.429 13.325C127.612 13.325 126.937 13.5167 126.404 13.9C125.82 14.3167 125.529 14.9 125.529 15.65ZM137.764 25.2V6.3H140.189V8.35H140.239C140.672 7.7 141.256 7.16667 141.989 6.75C142.806 6.28333 143.681 6.05 144.614 6.05C146.331 6.05 147.739 6.65 148.839 7.85C150.006 9.11667 150.589 10.8083 150.589 12.925C150.589 15.0917 149.972 16.825 148.739 18.125C147.589 19.325 146.156 19.925 144.439 19.925C143.639 19.925 142.856 19.7333 142.089 19.35C141.422 19.0167 140.872 18.5917 140.439 18.075H140.364V25.2H137.764ZM140.239 13.075C140.239 14.3917 140.597 15.475 141.314 16.325C142.047 17.1917 142.981 17.625 144.114 17.625C145.214 17.625 146.114 17.2083 146.814 16.375C147.531 15.525 147.889 14.4 147.889 13C147.889 11.55 147.522 10.4 146.789 9.55C146.089 8.75 145.189 8.35 144.089 8.35C143.056 8.35 142.181 8.74167 141.464 9.525C140.647 10.4083 140.239 11.5917 140.239 13.075ZM160.84 19.7V14.875H157.94L155.34 19.7H152.54L155.39 14.575C154.44 14.275 153.723 13.775 153.24 13.075C152.773 12.3917 152.54 11.5583 152.54 10.575C152.54 9.19167 153.015 8.11667 153.965 7.35C154.848 6.65 156.023 6.3 157.49 6.3H163.415V19.7H160.84ZM155.215 10.575C155.232 11.975 156.048 12.7 157.665 12.75H160.84V8.475H157.665C156.882 8.475 156.273 8.675 155.84 9.075C155.423 9.45833 155.215 9.95833 155.215 10.575ZM164.86 23.8V17.55H166.61C167.16 16.8833 167.535 16.1083 167.735 15.225C167.918 14.4417 168.01 13.3417 168.01 11.925V6.3H177.985V17.55H180.06V23.8H177.535V19.7H167.385V23.8H164.86ZM169.385 17.55H175.41V8.5H170.51V12.15C170.51 14.5333 170.135 16.3333 169.385 17.55ZM182.222 19.7V6.3H184.822V11.75H186.972L190.447 6.3H193.422L188.997 12.75L193.547 19.7H190.572L186.947 13.95H184.822V19.7H182.222ZM200.416 6.05C201.933 6.05 203.174 6.475 204.141 7.325C205.158 8.225 205.666 9.45833 205.666 11.025V19.7H203.266V17.9H203.191C202.824 18.4667 202.283 18.9333 201.566 19.3C200.749 19.7167 199.824 19.925 198.791 19.925C197.524 19.925 196.458 19.5583 195.591 18.825C194.674 18.0583 194.216 17.0583 194.216 15.825C194.216 14.4583 194.733 13.375 195.766 12.575C196.749 11.8083 198.041 11.425 199.641 11.425C200.891 11.425 202.049 11.6417 203.116 12.075V11.1C203.116 10.1833 202.841 9.475 202.291 8.975C201.774 8.50833 201.091 8.275 200.241 8.275C198.808 8.275 197.574 8.89167 196.541 10.125L194.891 8.525C195.491 7.80833 196.258 7.225 197.191 6.775C198.208 6.29167 199.283 6.05 200.416 6.05ZM196.891 15.65C196.891 16.3 197.116 16.8167 197.566 17.2C198.033 17.5833 198.658 17.775 199.441 17.775C200.441 17.775 201.291 17.5 201.991 16.95C202.741 16.3667 203.116 15.6167 203.116 14.7V14C202.216 13.55 201.108 13.325 199.791 13.325C198.974 13.325 198.299 13.5167 197.766 13.9C197.183 14.3167 196.891 14.9 196.891 15.65ZM215.864 19.7V1.325H218.589V9.125H227.714V1.325H230.414V19.7H227.714V11.5H218.589V19.7H215.864ZM242.254 19.925C239.521 19.925 237.279 19.0333 235.529 17.25C233.796 15.4833 232.929 13.2167 232.929 10.45C232.979 7.7 233.846 5.46667 235.529 3.75C237.229 2.01667 239.471 1.125 242.254 1.075C245.054 1.125 247.304 2.01667 249.004 3.75C250.687 5.46667 251.554 7.7 251.604 10.45C251.604 13.2167 250.737 15.4833 249.004 17.25C247.254 19.0333 245.004 19.925 242.254 19.925ZM235.729 10.45C235.729 12.5333 236.321 14.2167 237.504 15.5C238.704 16.8 240.287 17.45 242.254 17.45C244.221 17.45 245.796 16.8 246.979 15.5C248.129 14.2333 248.729 12.55 248.779 10.45C248.829 8.43333 248.254 6.78333 247.054 5.5C245.837 4.2 244.237 3.55 242.254 3.55C240.287 3.55 238.704 4.2 237.504 5.5C236.321 6.78333 235.729 8.43333 235.729 10.45ZM254.121 19.7V1.325H257.146L266.121 15.5H266.196V1.325H268.846V19.7H265.871L256.846 5.45H256.771V19.7H254.121ZM280.706 19.925C277.973 19.925 275.731 19.0333 273.981 17.25C272.248 15.4833 271.381 13.2167 271.381 10.45C271.431 7.7 272.298 5.46667 273.981 3.75C275.681 2.01667 277.923 1.125 280.706 1.075C283.506 1.125 285.756 2.01667 287.456 3.75C289.14 5.46667 290.006 7.7 290.056 10.45C290.056 13.2167 289.19 15.4833 287.456 17.25C285.706 19.0333 283.456 19.925 280.706 19.925ZM274.181 10.45C274.181 12.5333 274.773 14.2167 275.956 15.5C277.156 16.8 278.74 17.45 280.706 17.45C282.673 17.45 284.248 16.8 285.431 15.5C286.581 14.2333 287.181 12.55 287.231 10.45C287.281 8.43333 286.706 6.78333 285.506 5.5C284.29 4.2 282.69 3.55 280.706 3.55C278.74 3.55 277.156 4.2 275.956 5.5C274.773 6.78333 274.181 8.43333 274.181 10.45ZM306.973 19.7H303.873L298.873 12.575H295.598V19.7H292.873V1.325H298.948C303.632 1.325 305.973 3.2 305.973 6.95C305.973 8.35 305.59 9.525 304.823 10.475C304.073 11.3917 303.032 12.0083 301.698 12.325L306.973 19.7ZM295.598 10.25H298.873C300.207 10.25 301.215 10.0417 301.898 9.625C302.732 9.10833 303.148 8.23333 303.148 7C303.148 5.76667 302.732 4.875 301.898 4.325C301.215 3.875 300.232 3.65 298.948 3.65H295.598V10.25ZM325.876 5.1C324.943 3.91667 323.626 3.325 321.926 3.325C321.026 3.325 320.268 3.54167 319.651 3.975C318.968 4.45833 318.626 5.125 318.626 5.975C318.626 6.775 318.926 7.4 319.526 7.85C320.059 8.25 321.001 8.64167 322.351 9.025C324.218 9.55833 325.601 10.2083 326.501 10.975C327.651 11.9417 328.226 13.225 328.226 14.825C328.226 16.525 327.584 17.85 326.301 18.8C325.134 19.6667 323.634 20.1 321.801 20.1C320.584 20.1 319.393 19.8667 318.226 19.4C316.993 18.9 316.043 18.2333 315.376 17.4L317.076 15.675C318.409 17.025 320.018 17.7 321.901 17.7C322.934 17.7 323.776 17.4667 324.426 17C325.109 16.5167 325.451 15.8333 325.451 14.95C325.451 13.9 325.068 13.1 324.301 12.55C323.734 12.15 322.668 11.725 321.101 11.275C319.418 10.7917 318.151 10.1667 317.301 9.4C316.351 8.53333 315.876 7.44167 315.876 6.125C315.876 4.49167 316.493 3.2 317.726 2.25C318.876 1.36667 320.309 0.925 322.026 0.925C324.326 0.991666 326.201 1.8 327.651 3.35L325.876 5.1ZM335.45 19.925C334.133 19.925 333.058 19.4833 332.225 18.6C331.342 17.6667 330.9 16.425 330.9 14.875V6.3H333.5V14.175C333.5 15.325 333.7 16.1833 334.1 16.75C334.517 17.3333 335.167 17.625 336.05 17.625C336.967 17.625 337.783 17.2667 338.5 16.55C339.25 15.8 339.625 14.9083 339.625 13.875V6.3H342.2V19.7H339.8V17.8H339.75C338.717 19.1667 337.283 19.875 335.45 19.925ZM345.821 25.2V6.3H348.246V8.35H348.296C348.729 7.7 349.312 7.16667 350.046 6.75C350.862 6.28333 351.737 6.05 352.671 6.05C354.387 6.05 355.796 6.65 356.896 7.85C358.062 9.11667 358.646 10.8083 358.646 12.925C358.646 15.0917 358.029 16.825 356.796 18.125C355.646 19.325 354.212 19.925 352.496 19.925C351.696 19.925 350.912 19.7333 350.146 19.35C349.479 19.0167 348.929 18.5917 348.496 18.075H348.421V25.2H345.821ZM348.296 13.075C348.296 14.3917 348.654 15.475 349.371 16.325C350.104 17.1917 351.037 17.625 352.171 17.625C353.271 17.625 354.171 17.2083 354.871 16.375C355.587 15.525 355.946 14.4 355.946 13C355.946 11.55 355.579 10.4 354.846 9.55C354.146 8.75 353.246 8.35 352.146 8.35C351.112 8.35 350.237 8.74167 349.521 9.525C348.704 10.4083 348.296 11.5917 348.296 13.075ZM372.772 17.45C372.272 18.1667 371.53 18.75 370.547 19.2C369.513 19.6833 368.405 19.925 367.222 19.925C365.305 19.925 363.73 19.2667 362.497 17.95C361.28 16.65 360.672 14.9917 360.672 12.975C360.672 10.9583 361.28 9.3 362.497 8C363.713 6.7 365.263 6.05 367.147 6.05C368.947 6.05 370.422 6.68333 371.572 7.95C372.722 9.23333 373.297 10.9 373.297 12.95C373.297 13.3667 373.288 13.675 373.272 13.875H363.322C363.422 14.9917 363.805 15.8917 364.472 16.575C365.188 17.3083 366.163 17.675 367.397 17.675C369.03 17.675 370.313 17.0833 371.247 15.9L372.772 17.45ZM363.322 11.85H370.697C370.663 10.7833 370.305 9.91667 369.622 9.25C368.955 8.6 368.13 8.275 367.147 8.275C366.13 8.275 365.272 8.6 364.572 9.25C363.872 9.9 363.455 10.7667 363.322 11.85ZM375.947 19.7V6.3H378.372V8.625H378.422C378.856 7.84167 379.422 7.225 380.122 6.775C380.872 6.29167 381.689 6.05 382.572 6.05C382.989 6.05 383.381 6.11667 383.747 6.25L383.372 8.525C383.006 8.40833 382.639 8.35 382.272 8.35C381.189 8.35 380.297 8.81667 379.597 9.75C378.897 10.6833 378.547 11.85 378.547 13.25V19.7H375.947ZM401.615 15.55C401.098 16.8333 400.198 17.8667 398.915 18.65C397.532 19.5 395.89 19.925 393.99 19.925C391.273 19.8917 389.04 19.025 387.29 17.325C385.54 15.625 384.632 13.3333 384.565 10.45C384.565 7.61667 385.49 5.325 387.34 3.575C389.107 1.90833 391.332 1.075 394.015 1.075C395.515 1.075 396.898 1.35833 398.165 1.925C399.348 2.45833 400.265 3.15833 400.915 4.025L399.165 5.775C398.532 5.05833 397.84 4.525 397.09 4.175C396.207 3.75833 395.165 3.55 393.965 3.55C392.065 3.55 390.507 4.15 389.29 5.35C388.007 6.61667 387.365 8.31667 387.365 10.45C387.365 12.5333 388.015 14.2333 389.315 15.55C390.565 16.8167 392.165 17.45 394.115 17.45C396.665 17.45 398.473 16.45 399.54 14.45L401.615 15.55ZM403.755 0.575H406.355V8.1H406.43C406.847 7.53333 407.397 7.06667 408.08 6.7C408.88 6.26667 409.722 6.05 410.605 6.05C411.988 6.05 413.113 6.5 413.98 7.4C414.863 8.31667 415.305 9.525 415.305 11.025V19.7H412.73V11.675C412.73 10.6417 412.48 9.825 411.98 9.225C411.497 8.64167 410.863 8.35 410.08 8.35C409.08 8.35 408.213 8.74167 407.48 9.525C406.73 10.325 406.355 11.2917 406.355 12.425V19.7H403.755V0.575ZM424.024 6.05C425.541 6.05 426.783 6.475 427.749 7.325C428.766 8.225 429.274 9.45833 429.274 11.025V19.7H426.874V17.9H426.799C426.433 18.4667 425.891 18.9333 425.174 19.3C424.358 19.7167 423.433 19.925 422.399 19.925C421.116 19.925 420.041 19.5583 419.174 18.825C418.274 18.0583 417.824 17.0667 417.824 15.85C417.824 14.4667 418.341 13.375 419.374 12.575C420.358 11.8083 421.649 11.425 423.249 11.425C424.499 11.425 425.658 11.6417 426.724 12.075V11.1C426.724 10.1833 426.449 9.46667 425.899 8.95C425.399 8.48333 424.733 8.25 423.899 8.25C422.483 8.25 421.183 8.84167 419.999 10.025L418.524 8.4C419.141 7.71667 419.908 7.16667 420.824 6.75C421.841 6.28333 422.908 6.05 424.024 6.05ZM420.499 15.65C420.499 16.3 420.724 16.8167 421.174 17.2C421.641 17.5833 422.266 17.775 423.049 17.775C424.049 17.775 424.899 17.5 425.599 16.95C426.349 16.3667 426.724 15.6167 426.724 14.7V14C425.891 13.55 424.783 13.325 423.399 13.325C422.583 13.325 421.908 13.5167 421.374 13.9C420.791 14.3167 420.499 14.9 420.499 15.65ZM432.759 19.7V6.3H435.184V8.625H435.234C435.667 7.84167 436.234 7.225 436.934 6.775C437.684 6.29167 438.501 6.05 439.384 6.05C439.801 6.05 440.192 6.11667 440.559 6.25L440.184 8.525C439.817 8.40833 439.451 8.35 439.084 8.35C438.001 8.35 437.109 8.81667 436.409 9.75C435.709 10.6833 435.359 11.85 435.359 13.25V19.7H432.759ZM446.997 25.425C444.797 25.425 442.897 24.6917 441.297 23.225L442.622 21.3C443.939 22.5167 445.389 23.125 446.972 23.125C448.355 23.125 449.38 22.7333 450.047 21.95C450.597 21.3 450.872 20.4333 450.872 19.35V17.775H450.797C450.43 18.325 449.914 18.775 449.247 19.125C448.464 19.5417 447.605 19.75 446.672 19.75C445.022 19.75 443.639 19.1583 442.522 17.975C441.339 16.7083 440.747 15.0417 440.747 12.975C440.747 10.975 441.33 9.31667 442.497 8C443.647 6.7 445.097 6.05 446.847 6.05C447.764 6.05 448.622 6.275 449.422 6.725C450.122 7.125 450.647 7.60833 450.997 8.175H451.047V6.3H453.447V19.3C453.447 21.2333 452.897 22.7333 451.797 23.8C450.68 24.8833 449.08 25.425 446.997 25.425ZM443.447 12.875C443.447 14.275 443.797 15.4 444.497 16.25C445.164 17.0667 446.03 17.475 447.097 17.475C448.297 17.475 449.247 17.0667 449.947 16.25C450.647 15.4333 450.997 14.375 450.997 13.075C450.997 11.5917 450.614 10.4167 449.847 9.55C449.147 8.75 448.264 8.35 447.197 8.35C446.097 8.35 445.197 8.775 444.497 9.625C443.797 10.475 443.447 11.5583 443.447 12.875ZM468.304 17.45C467.804 18.1667 467.062 18.75 466.079 19.2C465.046 19.6833 463.937 19.925 462.754 19.925C460.837 19.925 459.262 19.2667 458.029 17.95C456.812 16.65 456.204 14.9917 456.204 12.975C456.204 10.9583 456.812 9.3 458.029 8C459.246 6.7 460.796 6.05 462.679 6.05C464.479 6.05 465.954 6.68333 467.104 7.95C468.254 9.23333 468.829 10.9 468.829 12.95C468.829 13.3667 468.821 13.675 468.804 13.875H458.854C458.954 14.9917 459.337 15.8917 460.004 16.575C460.721 17.3083 461.696 17.675 462.929 17.675C464.562 17.675 465.846 17.0833 466.779 15.9L468.304 17.45ZM458.854 11.85H466.229C466.196 10.7833 465.837 9.91667 465.154 9.25C464.487 8.6 463.662 8.275 462.679 8.275C461.662 8.275 460.804 8.6 460.104 9.25C459.404 9.9 458.987 10.7667 458.854 11.85ZM483.168 20.1C481.551 20.1 480.193 19.5917 479.093 18.575C477.943 17.525 477.343 16.1583 477.293 14.475H479.993C480.06 15.4417 480.385 16.2167 480.968 16.8C481.568 17.4 482.318 17.7 483.218 17.7C484.268 17.7 485.068 17.4333 485.618 16.9C486.185 16.35 486.468 15.5583 486.468 14.525C486.468 13.325 486.068 12.4583 485.268 11.925C484.601 11.475 483.651 11.25 482.418 11.25H481.518V9H482.418C483.418 9 484.235 8.75 484.868 8.25C485.551 7.71667 485.893 6.98333 485.893 6.05C485.893 5.25 485.66 4.6 485.193 4.1C484.71 3.58333 484.06 3.325 483.243 3.325C482.376 3.325 481.676 3.60833 481.143 4.175C480.743 4.60833 480.451 5.16667 480.268 5.85H477.618C477.718 4.51667 478.26 3.38333 479.243 2.45C480.326 1.43333 481.668 0.925 483.268 0.925C484.901 0.925 486.21 1.375 487.193 2.275C488.16 3.15833 488.643 4.30833 488.643 5.725C488.56 7.975 487.643 9.39167 485.893 9.975V10.075C488.01 10.575 489.118 12.0833 489.218 14.6C489.218 16.2167 488.701 17.525 487.668 18.525C486.568 19.575 485.068 20.1 483.168 20.1ZM497.035 20.1C495.518 20.1 494.218 19.6333 493.135 18.7C492.051 17.7667 491.41 16.55 491.21 15.05H493.835C494.001 15.8 494.36 16.4167 494.91 16.9C495.51 17.4333 496.235 17.7 497.085 17.7C498.068 17.7 498.868 17.3833 499.485 16.75C500.135 16.0833 500.46 15.175 500.46 14.025C500.46 12.8583 500.118 11.95 499.435 11.3C498.818 10.7167 498.051 10.425 497.135 10.425C495.951 10.425 494.943 10.8083 494.11 11.575H491.785L492.76 1.325H501.885V3.6H494.985L494.46 8.925C495.26 8.34167 496.293 8.05 497.56 8.05C499.126 8.05 500.451 8.59167 501.535 9.675C502.651 10.7917 503.21 12.2083 503.21 13.925C503.21 15.775 502.643 17.2667 501.51 18.4C500.376 19.5333 498.885 20.1 497.035 20.1ZM513.137 19.7V1.325H519.537C521.337 1.325 522.779 1.675 523.862 2.375C525.079 3.15833 525.687 4.31667 525.687 5.85C525.604 8.05 524.562 9.40833 522.562 9.925V10C523.729 10.1167 524.704 10.6083 525.487 11.475C526.254 12.3417 526.637 13.375 526.637 14.575C526.637 16.2583 526.012 17.55 524.762 18.45C523.595 19.2833 521.995 19.7 519.962 19.7H513.137ZM515.837 17.35H519.962C521.312 17.35 522.295 17.1083 522.912 16.625C523.529 16.1417 523.837 15.3833 523.837 14.35C523.837 13.3 523.47 12.5083 522.737 11.975C522.07 11.4917 521.162 11.25 520.012 11.25H515.837V17.35ZM515.837 8.95H519.312C520.445 8.95 521.295 8.775 521.862 8.425C522.562 7.99167 522.912 7.26667 522.912 6.25C522.912 4.53333 521.762 3.675 519.462 3.675H515.837V8.95ZM532.297 19.7V8.5H527.722V6.3H539.447V8.5H534.872V19.7H532.297Z" fill="url(#paint0_linear_78_111)"/>
<defs>
<linearGradient id="paint0_linear_78_111" x1="4.29116" y1="0.736842" x2="70.1374" y2="96.7569" gradientUnits="userSpaceOnUse">
<stop offset="0.0307776" stop-color="#004F46"/>
<stop offset="1" stop-color="#00846D"/>
</linearGradient>
</defs>
</svg>
