<svg width="658" height="85" viewBox="0 0 658 85" fill="none" xmlns="http://www.w3.org/2000/svg">
<path d="M473.934 83.818L501.171 40.3247L476.176 1.42871H487.498L507.562 33.1527L527.179 1.42871H538.163L513.054 40.4389L540.742 83.818H529.311L507.115 47.7205L484.809 83.818H473.934Z" fill="black"/>
<path d="M598.359 1.42407V10.057L563.832 83.8134H552.958L588.156 9.94285H547.575V1.42407H598.355H598.359Z" fill="black"/>
<path d="M634.9 22.6115C639.31 22.6115 643.492 23.5062 647.454 25.3004C651.193 27.0215 654.257 29.222 656.649 31.9155L650.595 37.969C648.874 36.1748 646.747 34.682 644.209 33.4859C641.218 32.0661 638.114 31.3539 634.905 31.3539C628.778 31.3539 623.957 33.2987 620.446 37.1838C616.931 41.0688 615.178 46.5289 615.178 53.5502C615.178 60.5716 616.863 66.0682 620.223 70.0308C623.66 74.0665 628.445 76.0844 634.571 76.0844C641.296 76.0844 647.126 73.0576 652.061 67.0041L658 72.948C655.905 76.162 652.841 78.8874 648.81 81.129C644.25 83.5942 639.356 84.8268 634.124 84.8268C625.304 84.8268 618.241 81.9872 612.937 76.3081C607.705 70.7019 605.089 63.119 605.089 53.5502C605.089 43.9814 607.782 36.9235 613.16 31.2444C618.616 25.4876 625.865 22.6115 634.909 22.6115H634.9Z" fill="black"/>
<path d="M47.4925 1.13684H62.2201V83.8046H47.4925V49.3688H14.7231V83.8046H0.00012207V1.13684H14.7231V34.6459H47.4925V1.13684Z" fill="black"/>
<path d="M234.293 52.7289L198.538 1.13684H186.801V83.8046H201.528V31.9615L237.452 83.8046H249.021V1.13684H234.293V52.7289Z" fill="black"/>
<path d="M311.311 0C287.886 0 268.895 18.9869 268.895 42.4159C268.895 65.8448 287.886 84.8271 311.311 84.8271C334.735 84.8271 353.727 65.8357 353.727 42.4159C353.727 18.9961 334.74 0 311.311 0ZM311.311 70.0996C296.017 70.0996 283.622 57.7049 283.622 42.4113C283.622 27.1177 296.017 14.723 311.311 14.723C326.604 14.723 338.999 27.1177 338.999 42.4113C338.999 57.7049 326.604 70.0996 311.311 70.0996Z" fill="black"/>
<path d="M413.011 53.6648C423.867 50.2043 431.733 40.0374 431.733 28.0354C431.733 13.2028 419.726 1.17793 404.908 1.13684H373.604V83.8092H388.326V47.0177L419.005 83.8092H438.143L413.011 53.6693V53.6648ZM388.331 40.2109V15.8598H404.729C411.45 15.8598 416.9 21.3107 416.9 28.0354C416.9 34.76 411.45 40.2109 404.725 40.2109H388.331Z" fill="black"/>
<path d="M124.509 0C101.085 0 82.0931 18.9869 82.0931 42.4159C82.0931 65.8448 101.085 84.8271 124.509 84.8271C147.933 84.8271 166.925 65.8357 166.925 42.4159C166.925 18.9961 147.933 0 124.509 0ZM124.509 70.0996C109.215 70.0996 96.8207 57.7049 96.8207 42.4113C96.8207 27.1177 109.215 14.723 124.509 14.723C139.803 14.723 152.193 27.1177 152.193 42.4113C152.193 57.7049 139.798 70.0996 124.509 70.0996Z" fill="black"/>
</svg>
