<svg width="255" height="58" viewBox="0 0 255 58" fill="none" xmlns="http://www.w3.org/2000/svg">
<path fill-rule="evenodd" clip-rule="evenodd" d="M13.0855 26.6111C11.8552 36.5755 20.0324 44.9938 29.7109 43.7272C36.3085 42.8635 41.6359 37.3791 42.4749 30.5869C43.7047 20.6231 35.528 12.2048 25.849 13.4714C19.2513 14.3346 13.924 19.819 13.0855 26.6111ZM0.140752 31.5177C-1.59979 13.4301 13.0452 -1.64603 30.6147 0.144739C43.6159 1.47036 54.1323 12.2968 55.42 25.6818C57.16 43.7693 42.5155 58.8455 24.9455 57.0542C11.9443 55.7286 1.42788 44.9027 0.140752 31.5177ZM63.9762 9.32924C63.142 5.04048 66.3059 1.27698 70.3235 1.27698H110.991C112.535 1.27698 113.412 3.09592 112.479 4.36251L84.3457 42.5742H106.389C110.406 42.5742 113.57 46.3371 112.736 50.6259C112.124 53.771 109.26 55.9191 106.145 55.9191H61.9801C60.4504 55.9191 59.581 54.117 60.5046 52.8623L88.66 14.622H70.5676C67.4521 14.622 64.588 12.4743 63.9762 9.32924ZM246.804 1.42988C243.797 2.08132 241.731 4.96323 241.731 8.12727L241.732 30.3498L206.65 1.69738C205.427 0.698841 203.625 1.59558 203.625 3.20224V49.0822C203.625 52.2457 205.69 55.1282 208.698 55.7796C212.893 56.6883 216.588 53.4186 216.588 49.2598V26.8484L251.669 55.5002C252.892 56.4987 254.694 55.6025 254.694 53.9959V7.94912C254.694 3.79032 250.999 0.520684 246.804 1.42988ZM116.575 28.5919C116.575 12.801 133.986 0.000221335 155.464 0.000221335C176.941 0.000221335 194.352 12.801 194.352 28.5919C194.352 44.3824 176.941 57.1837 155.464 57.1837C133.986 57.1837 116.575 44.3824 116.575 28.5919ZM181.388 28.5918C181.388 21.3946 170.301 13.345 155.463 13.345C140.625 13.345 129.538 21.3946 129.538 28.5918C129.538 35.789 140.625 43.8385 155.463 43.8385C170.301 43.8385 181.388 35.789 181.388 28.5918Z" fill="#005BFF"/>
</svg>
