<svg width="299" height="49" viewBox="0 0 299 49" fill="none" xmlns="http://www.w3.org/2000/svg">
<path d="M298.033 32.8237C297.099 34.1772 295.697 35.3051 293.828 36.2075C291.797 37.1743 289.638 37.6577 287.35 37.6577C283.644 37.6577 280.631 36.3686 278.31 33.7905C276.054 31.2768 274.926 28.1024 274.926 24.2674C274.926 20.3357 276.07 17.113 278.359 14.5992C280.647 12.0855 283.628 10.8287 287.302 10.8287C290.75 10.8287 293.554 12.0372 295.713 14.4542C297.904 16.9035 299 20.1584 299 24.219V25.7659H279.229C279.39 28.1185 280.147 30.0199 281.501 31.4701C283.015 33.0815 285.078 33.8871 287.688 33.8871C291.008 33.8871 293.586 32.6625 295.423 30.2133L298.033 32.8237ZM279.229 22.1887H294.746C294.682 19.9328 293.924 18.0959 292.474 16.6779C291.056 15.2921 289.316 14.5992 287.253 14.5992C285.126 14.5992 283.338 15.2599 281.887 16.5812C280.373 17.967 279.487 19.8361 279.229 22.1887Z" fill="black"/>
<path d="M258.591 37.2227V11.3121H262.506V16.0978H262.603C264.343 12.7462 267.179 10.9898 271.111 10.8287C271.756 10.8287 272.368 10.9092 272.948 11.0704L272.32 14.8409C271.772 14.6798 271.192 14.5992 270.579 14.5992C268.323 14.5992 266.454 15.5822 264.972 17.548C263.489 19.5139 262.748 21.9954 262.748 24.9925V37.2227H258.591Z" fill="black"/>
<path d="M226.512 24.2674C226.512 20.2712 227.624 17.0485 229.848 14.5992C232.136 12.0855 235.181 10.8287 238.984 10.8287C242.787 10.8287 245.832 12.0855 248.121 14.5992C250.344 17.0485 251.456 20.2712 251.456 24.2674C251.456 28.2635 250.344 31.4862 248.121 33.9355C245.865 36.417 242.819 37.6577 238.984 37.6577C235.149 37.6577 232.104 36.417 229.848 33.9355C227.624 31.4862 226.512 28.2635 226.512 24.2674ZM230.863 24.2674C230.863 27.0711 231.572 29.3592 232.99 31.1317C234.472 32.9687 236.47 33.8871 238.984 33.8871C241.498 33.8871 243.496 32.9687 244.978 31.1317C246.396 29.3592 247.105 27.0711 247.105 24.2674C247.105 21.4636 246.396 19.1755 244.978 17.403C243.496 15.5338 241.498 14.5992 238.984 14.5992C236.47 14.5992 234.472 15.5338 232.99 17.403C231.572 19.1755 230.863 21.4636 230.863 24.2674Z" fill="black"/>
<path d="M221.488 11.3117V14.8889H214.478V28.3276C214.478 30.1968 214.672 31.5181 215.058 32.2915C215.574 33.355 216.589 33.8868 218.104 33.8868C219.006 33.8868 220.054 33.6773 221.246 33.2584L221.874 36.8356C220.521 37.3834 218.942 37.6574 217.137 37.6574C212.593 37.6574 210.321 35.047 210.321 29.8262V14.8889H205.1V11.3117H210.321V3.28717H214.478V11.3117H221.488Z" fill="black"/>
<path d="M185.241 29.9232C186.949 32.5658 189.463 33.8871 192.782 33.8871C196.198 33.8871 197.906 32.6142 197.906 30.0682C197.906 28.8114 197.294 27.8285 196.07 27.1195C195.103 26.5394 193.508 26.0237 191.284 25.5726C185.87 24.4768 183.163 22.0437 183.163 18.2731C183.163 15.8883 184.113 14.0192 186.015 12.6656C187.755 11.441 189.946 10.8287 192.589 10.8287C194.523 10.8287 196.327 11.2315 198.003 12.0372C199.615 12.8106 200.775 13.7452 201.484 14.8409L198.825 17.4997C197.471 15.7272 195.361 14.7604 192.492 14.5992C191.01 14.5992 189.834 14.8732 188.963 15.421C187.997 16.0333 187.513 16.9357 187.513 18.1281C187.513 19.385 188.158 20.3357 189.447 20.9802C190.124 21.3347 191.687 21.802 194.136 22.3821C196.617 22.9622 198.503 23.7678 199.792 24.7991C201.435 26.0882 202.257 27.8123 202.257 29.9716C202.257 32.4853 201.242 34.435 199.212 35.8208C197.439 37.0454 195.216 37.6577 192.541 37.6577C190.188 37.6577 188.045 37.1421 186.111 36.1108C184.307 35.144 183.018 33.9677 182.244 32.582L185.241 29.9232Z" fill="black"/>
<path d="M146.022 37.2223L158.252 18.6595L147.037 1.69189H155.303L162.602 13.5353L169.854 1.69189H177.926L166.808 18.6595L179.087 37.2223H170.82L162.457 23.9769L154.143 37.2223H146.022Z" fill="black"/>
<path d="M133.011 10.8287C137.265 10.9898 140.665 12.5528 143.21 15.5177L139.053 19.53C137.442 17.5964 135.524 16.6295 133.301 16.6295C131.27 16.6295 129.675 17.3385 128.515 18.7565C127.387 20.1423 126.823 21.9631 126.823 24.219C126.823 26.5394 127.355 28.3763 128.418 29.7299C129.546 31.1478 131.125 31.8568 133.156 31.8568C135.766 31.8568 137.974 30.6161 139.778 28.1346L143.839 31.9052C142.775 33.6132 141.325 34.9829 139.488 36.0141C137.522 37.1099 135.331 37.6577 132.914 37.6577C129.014 37.6577 125.856 36.3686 123.439 33.7905C121.087 31.2768 119.91 28.0863 119.91 24.219C119.943 20.384 121.119 17.2096 123.439 14.6959C125.759 12.2144 128.95 10.9254 133.011 10.8287Z" fill="black"/>
<path d="M106.715 37.2223V11.3117H113.386V37.2223H106.715ZM105.941 4.06061C105.941 2.90044 106.328 1.93363 107.101 1.16018C107.875 0.386726 108.842 0 110.002 0C111.194 0 112.177 0.386726 112.951 1.16018C113.724 1.93363 114.111 2.90044 114.111 4.06061C114.111 5.15633 113.724 6.09092 112.951 6.86437C112.145 7.67005 111.162 8.07289 110.002 8.07289C108.874 8.07289 107.907 7.67005 107.101 6.86437C106.328 6.09092 105.941 5.15633 105.941 4.06061Z" fill="black"/>
<path d="M85.2962 48.2927C80.8489 48.196 76.9977 46.778 73.7428 44.0387L76.9333 39.2046C79.7048 41.3961 82.4602 42.4918 85.1995 42.4918C87.4232 42.4918 89.1151 41.8311 90.2753 40.5098C91.3066 39.3496 91.8222 37.8672 91.8222 36.0625V33.7905H91.6288C90.9521 34.8217 90.0336 35.6435 88.8734 36.2558C87.5199 36.9648 85.973 37.3193 84.2327 37.3193C81.0422 37.3193 78.3674 36.143 76.2082 33.7905C73.9201 31.309 72.776 28.1185 72.776 24.219C72.8727 20.2229 74.0167 17.0002 76.2082 14.5509C78.4318 12.1339 81.2195 10.8931 84.5711 10.8287C86.3114 10.8287 87.9066 11.2315 89.3568 12.0372C90.6459 12.7462 91.5966 13.6163 92.2089 14.6476H92.3056V11.3121H98.4932V35.7241C98.4932 39.6236 97.3653 42.669 95.1094 44.8605C92.7568 47.1486 89.4857 48.2927 85.2962 48.2927ZM79.6887 24.074C79.6887 26.3299 80.2366 28.1668 81.3323 29.5848C82.428 31.0028 83.8943 31.7118 85.7313 31.7118C87.6327 31.7118 89.1635 31.0028 90.3236 29.5848C91.4194 28.2313 91.9672 26.4588 91.9672 24.2674C91.9672 21.947 91.3871 20.094 90.227 18.7082C89.0668 17.3224 87.6005 16.6295 85.828 16.6295C83.9588 16.6295 82.4602 17.3385 81.3323 18.7565C80.2366 20.1423 79.6887 21.9148 79.6887 24.074Z" fill="black"/>
<path d="M56.2314 10.8287C59.3574 10.8287 61.9034 11.6827 63.8692 13.3907C65.9318 15.1954 66.963 17.5964 66.963 20.5935V37.2227H60.8238V33.6938H60.6304C60.0181 34.7895 59.019 35.7241 57.6333 36.4975C56.2153 37.2388 54.5395 37.6255 52.6059 37.6577C50.0599 37.6577 47.9652 36.9487 46.3216 35.5307C44.6135 34.0805 43.7595 32.2113 43.7595 29.9232C43.7595 27.2161 44.7908 25.0892 46.8533 23.5423C48.8192 22.0598 51.3812 21.3186 54.5395 21.3186C56.5376 21.3186 58.4873 21.6892 60.3887 22.4304V20.7385C60.3887 19.3205 59.9375 18.1764 59.0352 17.3063C58.1973 16.5006 57.1015 16.0978 55.748 16.0978C53.1376 16.0978 50.785 17.0002 48.6903 18.8049L45.4514 15.0343C46.6438 13.8419 48.1102 12.8751 49.8504 12.1339C51.8807 11.2637 54.0077 10.8287 56.2314 10.8287ZM50.4789 29.1014C50.4789 30.1971 50.8495 31.0512 51.5907 31.6635C52.2997 32.2758 53.3149 32.582 54.6362 32.582C56.1831 32.582 57.5205 32.1308 58.6484 31.2284C59.8086 30.2938 60.3887 29.182 60.3887 27.8929V26.491C58.9707 25.8143 57.2143 25.4759 55.1196 25.4759C53.766 25.4759 52.6542 25.7982 51.7841 26.4427C50.9139 27.0872 50.4789 27.9735 50.4789 29.1014Z" fill="black"/>
<path d="M6.96105 1.69189L18.7562 23.0585H18.9012L30.7446 1.69189H37.5607V37.2223H30.8897V13.8737H30.6963L20.7865 32.3882H16.7259L6.81603 13.8737H6.67101V37.2223H0V1.69189H6.96105Z" fill="black"/>
</svg>
