<svg width="223" height="60" viewBox="0 0 223 60" fill="none" xmlns="http://www.w3.org/2000/svg">
<path d="M192.161 0H30C13.4377 0 0 13.4377 0 30C0 46.5623 13.4377 60 30 60H192.151C208.724 60 222.151 46.5623 222.151 30C222.151 13.4377 208.734 0 192.161 0Z" fill="#00B956"/>
<path d="M36.1471 13.4883V30.653V30.6632C36.1471 31.4086 35.5344 32.0111 34.789 32.0111H32.7468C32.6447 32.0111 32.563 32.0928 32.563 32.1949V46.5822C33.0633 46.6333 33.5841 46.6537 34.0946 46.6537C43.2846 46.6537 50.7386 39.1996 50.7386 30.0097C50.7386 21.5141 44.3772 14.5094 36.1471 13.4985V13.4883ZM35.8101 39.0873C34.6562 39.0873 33.727 38.1581 33.727 37.0043C33.727 35.8504 34.6562 34.9212 35.8101 34.9212C36.9639 34.9212 37.8931 35.8504 37.8931 37.0043C37.8931 38.1581 36.9639 39.0873 35.8101 39.0873ZM40.691 39.0873C39.5473 39.0873 38.6079 38.1581 38.6079 37.0043C38.6079 35.8504 39.5371 34.9212 40.691 34.9212C41.8448 34.9212 42.774 35.8504 42.774 37.0043C42.774 38.1581 41.8448 39.0873 40.691 39.0873ZM47.6447 37.0043C47.6447 38.1581 46.7155 39.0873 45.5616 39.0873C44.4078 39.0873 43.4786 38.1581 43.4786 37.0043C43.4786 35.8504 44.4078 34.9212 45.5616 34.9212C46.7155 34.9212 47.6447 35.8504 47.6447 37.0043Z" fill="white"/>
<path d="M34.156 29.8266V13.3665H34.1049C24.915 13.3665 17.4609 20.8205 17.4609 30.0104C17.4609 37.9852 23.077 44.653 30.5719 46.2766V31.3379C30.5821 30.6129 31.1641 30.0411 31.8789 30.0104H32.5733H33.9824C34.0845 30.0104 34.1662 29.9287 34.1662 29.8368L34.156 29.8266ZM30.9089 27.0799C29.7652 27.0799 28.8258 26.1507 28.8258 24.9968C28.8258 23.843 29.755 22.9138 30.9089 22.9138C32.0627 22.9138 32.9919 23.843 32.9919 24.9968C32.9919 26.1507 32.0627 27.0799 30.9089 27.0799Z" fill="white"/>
<path d="M127.923 22.1162C126.586 22.1162 125.207 22.8514 124.513 24.3626L117.712 39.0972H122.134L123.614 35.5948H132.232L133.713 39.0972H138.134L131.334 24.3626C130.64 22.8616 129.251 22.1162 127.923 22.1162ZM125.024 32.2762L127.586 26.2517C127.668 26.0679 127.811 26.0168 127.923 26.0168C128.036 26.0168 128.179 26.0679 128.26 26.2517L130.823 32.2762H125.024Z" fill="white"/>
<path d="M81.882 19.5127C79.9317 19.5127 78.6961 20.544 77.7771 22.6373L72.3551 35.1151L66.933 22.6373C66.014 20.544 64.7683 19.5127 62.8282 19.5127C61.0106 19.5127 59.1216 20.8197 59.1216 23.6482V39.0974H63.2775V24.0668L68.7302 36.4426C69.4653 38.1682 70.6396 39.2608 72.3551 39.2608C74.0705 39.2608 75.2448 38.1784 75.98 36.4426L81.4327 24.0668V39.0974H85.5886V23.6482C85.5886 20.8197 83.6995 19.5127 81.882 19.5127Z" fill="white"/>
<path d="M88.3462 24.9857V36.6263C88.3462 37.8925 89.3775 39.0974 90.8173 39.0974H103.111V35.595H92.8697C92.6655 35.595 92.5123 35.4316 92.5123 35.2376V32.2764H102.876V28.8965H92.5123V26.3744C92.5123 26.1804 92.6655 26.017 92.8697 26.017H103.111V22.5146H90.8173C89.3775 22.5146 88.3462 23.7195 88.3462 24.9857Z" fill="white"/>
<path d="M120.766 22.5146H108.472C107.032 22.5146 106.001 23.7195 106.001 24.9857V39.0974H110.157V26.3744C110.157 26.1804 110.31 26.017 110.514 26.017H120.766V22.5146Z" fill="white"/>
<path d="M176.416 22.2598H174.966C168.666 22.2598 166.175 24.9657 166.175 30.7758C166.175 36.5041 168.728 39.2611 175.007 39.2611H176.386C182.666 39.2611 185.218 36.5041 185.218 30.786C185.218 24.9657 182.717 22.2598 176.427 22.2598H176.416ZM181.154 30.7962C181.154 34.2679 179.786 35.8302 176.345 35.8302H175.018C171.546 35.8302 170.208 34.2679 170.208 30.7962C170.208 27.4061 171.382 25.7519 175.018 25.7519H176.345C179.868 25.7519 181.154 27.4061 181.154 30.7758V30.7962Z" fill="white"/>
<path d="M154.585 19.9009H146.355C140.218 19.9009 137.757 23.005 137.757 28.4271C137.757 29.2746 137.808 30.0609 137.93 30.7756C138.584 34.615 140.841 36.9635 146.589 36.9635H148.397V39.0874H152.542V36.9635H154.35C160.099 36.9635 162.355 34.6048 163.009 30.7756C163.131 30.0506 163.182 29.2746 163.182 28.4271C163.182 23.005 160.732 19.9009 154.585 19.9009ZM148.397 33.4713H146.497C143.689 33.4713 142.668 32.4196 142.056 30.7756C141.821 30.1425 141.821 29.3359 141.821 28.4271C141.821 24.8941 143.455 23.3931 145.854 23.3931H148.407V33.4611L148.397 33.4713ZM158.894 30.7756C158.271 32.4196 157.26 33.4713 154.452 33.4713H152.553V23.4033H155.105C157.495 23.4033 159.139 24.9043 159.139 28.4373C159.139 29.3461 159.139 30.1528 158.904 30.7858L158.894 30.7756Z" fill="white"/>
<path d="M200.555 28.7944H192.121V22.5146H187.965V39.0974H192.121V32.3887H200.555V39.0974H204.711V22.5146H200.555V28.7944Z" fill="white"/>
</svg>
