<svg width="170" height="48" viewBox="0 0 170 48" fill="none" xmlns="http://www.w3.org/2000/svg">
<path d="M23.5582 47L11.7224 11.9528V47H0.544127V1.62939H19.8102L31.0542 35.493L42.364 1.62939H60.9725V47H48.7422V11.8213L36.9064 47H23.5582ZM85.1404 11.5583H66.7949V1.62939H115.782V11.5583H97.3707V47H85.1404V11.5583ZM117.752 24.3804C117.752 6.75824 127.549 0.708822 144.119 0.708822C159.308 0.708822 168.448 5.04862 169.698 17.3447H157.336C156.284 11.5583 151.812 10.1775 144.119 10.1775C135.9 10.1775 130.113 12.2816 130.113 21.7503V26.9449C130.113 36.1505 135.703 38.4519 144.185 38.4519C151.484 38.4519 156.086 37.1368 157.402 31.745H169.763C168.317 43.4493 159.243 47.9206 144.119 47.9206C127.549 47.9206 117.752 42.1999 117.752 24.3804Z" fill="#FF0032"/>
</svg>
