<svg width="327" height="36" viewBox="0 0 327 36" fill="none" xmlns="http://www.w3.org/2000/svg">
<path d="M86.8416 11.4823H78.0492L80.306 0.0358887H72.651L65.646 35.9638H82.1114C86.95 35.9638 89.1706 33.1834 89.9289 29.2115L92.0954 18.379C92.8717 14.2987 91.626 11.4823 86.8416 11.4823ZM84.2779 19.2997L82.6892 28.056C82.635 28.8324 81.9851 29.4462 81.2087 29.4462H74.655L76.8757 18.0901H83.4474C84.1696 18.0901 84.4765 18.4331 84.2779 19.3539V19.2997Z" fill="#CE1037"/>
<path d="M28.8867 0.0366211H14.1906L12.8004 7.0236H25.2759C26.0522 7.0236 26.2508 7.43885 26.1605 8.3235L24.5537 16.6104H16.8085L17.9459 10.8691L0 19.4449H13.3601L12.2227 25.1861L24.0121 19.5352L22.4233 27.7318C22.3331 28.472 21.6831 29.0136 20.9429 28.9595H8.52159L7.22168 35.9645H21.9359C26.6119 35.9645 28.8867 33.1842 29.6089 29.2122L34.0683 6.7889C34.7182 2.83502 33.5628 0.0366211 28.8867 0.0366211Z" fill="#CE1037"/>
<path d="M111.142 0.0357397C107.115 -0.253128 103.613 2.76193 103.27 6.78801L96.9871 28.9225H93.7915L92.311 35.9275H121.794L123.292 28.9225H120.963L126.506 0.0357397H111.142ZM113.2 28.9225H105.003L110.618 8.25041C110.618 7.54629 111.178 6.96856 111.882 6.9505H117.515L113.2 28.9225Z" fill="#CE1037"/>
<path d="M40.9471 6.78902L32.6782 35.9646H40.7665L48.2771 8.28752C48.2771 7.5834 48.8367 7.00567 49.5409 6.98761H56.2029L50.5519 35.9646H58.3152L65.23 0.0367416H48.9812C44.9009 -0.324343 41.3081 2.70876 40.9471 6.78902Z" fill="#CE1037"/>
<path d="M180.687 35.9638H188.974L191.826 29.3018H199.247L198.705 35.9457H207.299L208.22 0.0358887H197.82L180.687 35.9638ZM200.908 9.46019L199.752 23.5064H194.336L200.402 9.46019H200.908Z" fill="#CE1037"/>
<path d="M269.261 0.0358887H259.386C254.709 0.0358887 252.435 2.81624 251.622 6.78816L247.343 29.2295C246.567 33.2015 247.759 35.9818 252.489 35.9818H262.419C267.203 35.9818 269.424 33.2015 270.182 29.2295L274.641 6.80622C275.291 2.83429 274.118 0.0358887 269.261 0.0358887ZM266.698 8.26861L262.906 27.713C262.906 28.3449 262.419 28.8685 261.787 28.9226H256.009C255.233 28.9226 255.034 28.6157 255.125 27.6949L258.736 8.25055C258.988 7.3659 259.404 6.95065 260.126 6.95065H265.686C266.499 7.04092 266.86 7.40201 266.698 8.28666V8.26861Z" fill="#CE1037"/>
<path d="M229.431 0.0191382C225.405 -0.269729 221.903 2.74532 221.559 6.77141L215.313 28.9059H212.099L210.619 35.9109H240.155L241.546 28.9059H239.235L244.886 0.0191382H229.431ZM231.489 28.9059H223.311L228.926 8.2338C228.944 7.52969 229.521 6.97001 230.226 6.98806H235.804L231.489 28.9059Z" fill="#CE1037"/>
<path d="M185.163 6.78816C185.958 2.83429 184.748 0.0358887 179.964 0.0358887H163.715L156.674 35.9638H164.094L166.206 25.5645H175.125C179.855 25.5645 181.878 22.6759 182.744 18.722L185.163 6.78816ZM175.54 17.1874C175.324 18.1623 174.872 18.4873 174.06 18.4873H167.47L169.871 7.04092H176.407C177.183 7.04092 177.49 7.45617 177.382 8.34083L175.54 17.1874Z" fill="#CE1037"/>
<path d="M150.229 0.0358887H140.461C135.677 0.0358887 133.366 2.81624 132.481 6.78816L128.185 29.2295C127.48 33.2015 128.654 35.9818 133.33 35.9818H143.206C148.044 35.9818 150.301 33.2015 151.023 29.2295L155.483 6.80622C156.241 2.83429 155.049 0.0358887 150.229 0.0358887ZM147.665 8.26861L143.91 27.731C143.783 28.4532 143.151 28.9768 142.429 28.9587H137.013C136.291 28.9587 136.038 28.6518 136.128 27.731L139.992 8.28666C139.956 7.6006 140.498 7.02287 141.184 6.98676H146.78C147.448 7.04092 147.864 7.40201 147.665 8.28666V8.26861Z" fill="#CE1037"/>
<path d="M272.925 35.9632H280.472L282.079 27.6943H274.532L272.925 35.9632Z" fill="#CE1037"/>
<path d="M321.275 10.8687L317.538 30.0061C317.43 30.5116 317.249 30.6922 316.87 30.6922H312.916C312.555 30.6922 312.447 30.5116 312.537 30.0061L316.274 10.8687H310.768L306.922 30.7283C306.344 33.7072 307.139 35.8196 310.786 35.8196H317.105C320.084 36.0182 322.665 33.7614 322.882 30.7824V30.7283L326.782 10.8687H321.275Z" fill="#CE1037"/>
<path d="M301.307 10.8687H289.933L285.112 36.0001H290.294L291.774 28.7784H294.284L295.421 36.0001H301.162L299.7 28.5257C301.686 27.8396 303.112 26.0342 303.311 23.9399L304.954 15.5989C305.496 12.7643 304.629 10.8687 301.307 10.8687ZM298.238 22.8928C298.093 23.5788 297.768 23.7955 297.245 23.7955H292.623L294.266 15.7252H298.815C299.357 15.7252 299.574 16.0141 299.502 16.6279L298.238 22.8928Z" fill="#CE1037"/>
</svg>
