<svg width="288" height="48" viewBox="0 0 288 48" fill="none" xmlns="http://www.w3.org/2000/svg">
<path d="M8.70403 42.3988C16.337 42.3988 20.3506 34.7117 23.8539 24.3102H24.4185C23.0071 33.2965 23.4556 42.3988 31.8813 42.3988C39.4562 42.3988 43.0755 34.6537 46.2385 24.3102H46.803C45.3336 33.1302 45.7281 42.3988 54.3779 42.3988C61.9529 42.3988 66.1908 34.8238 67.8303 24.3643H62.5174C61.8949 26.6805 60.8199 28.9425 58.844 28.9425C54.7182 28.9425 56.9803 22.0443 58.786 13.3982L61.3883 0.846816H48.6706C48.6706 0.846816 41.9425 28.9425 36.6296 28.9425C32.7281 28.9425 34.6498 21.2555 36.2893 13.2822L38.8375 0.846816H26.1198C23.7456 10.1734 18.715 28.9425 14.0208 28.9425C12.4934 28.9425 12.099 27.9797 12.099 26.7385C12.099 25.9458 12.3233 25.099 12.6094 24.3643H0.962818C0.340273 26.8506 0 29.2248 0 31.657C0 37.7626 2.26204 42.3988 8.70403 42.3988ZM74.8446 42.3988C78.1816 42.3988 80.838 39.7965 80.838 36.4633C80.838 33.1302 78.1816 30.5279 74.8446 30.5279C71.5076 30.5279 68.8511 33.1263 68.8511 36.4633C68.8511 39.8003 71.5076 42.3988 74.8446 42.3988ZM109.27 28.8884C109.27 31.715 107.178 32.9601 104.862 32.9601H96.7226V24.7085H104.92C107.522 24.7085 109.274 26.29 109.274 28.8923L109.27 28.8884ZM96.7187 9.44257H104.182C106.331 9.44257 108.025 10.6297 108.025 13.116C108.025 15.6023 106.045 16.7894 104.182 16.7894H96.7187V9.43871V9.44257ZM112.491 20.2385C115.542 19.0514 118.597 16.337 118.597 11.1942C118.597 4.63622 113.678 0.850682 106.103 0.850682H86.3172V41.5481H106.328C114.015 41.5481 119.838 37.8167 119.838 30.2418C119.838 24.9289 116.671 21.4217 112.487 20.1225V20.2346L112.491 20.2385ZM277.218 21.2555C277.218 27.0208 273.487 32.2215 266.704 32.2215C259.922 32.2215 255.908 27.1329 255.908 21.1433C255.908 15.1537 259.64 10.1773 266.422 10.1773C273.204 10.1773 277.218 15.2659 277.218 21.2555ZM245.337 21.1975C245.337 33.4627 254.609 42.3949 266.592 42.3949C278.575 42.3949 287.79 33.3506 287.79 21.1975C287.79 9.0443 278.521 0 266.538 0C254.555 0 245.341 9.0443 245.341 21.1975H245.337ZM191.748 10.7379V31.6531H179.424C181.176 27.8676 182.027 20.5749 182.027 11.1903V10.7379H191.752H191.748ZM202.149 31.6531V0.846816H172.244V3.95567C172.244 17.9185 171.567 28.4901 168.4 31.657H164.162V47.994H174.564V41.5481H197.683V47.994H208.085V31.657H202.149V31.6531ZM222.724 31.6531V25.6597H239.796V16.3331H222.724V10.7379H241.377V0.846816H212.323V41.5481H242V31.657H222.724V31.6531ZM149.917 0.846816L135.05 23.966V0.846816H124.648V41.5481H135.05L149.917 18.4289V41.5481H160.319V0.846816H149.917Z" fill="#FF0000"/>
</svg>
