<svg width="172" height="29" viewBox="0 0 172 29" fill="none" xmlns="http://www.w3.org/2000/svg">
<path d="M10.9397 14.079H11.0288L18.3973 0.555176H21.9136V21.8862H18.5412V6.58708H18.4864L11.9267 18.9799H10.0143L3.45463 6.58708H3.36553V21.8862H0V0.555176H3.62599L10.9397 14.079Z" fill="black"/>
<path d="M28.3843 17.0949C28.3843 17.8489 28.6242 18.4315 29.0972 18.8359C29.5701 19.2403 30.2419 19.446 31.1124 19.446C31.8253 19.446 32.4833 19.3089 33.0865 19.0416C33.6897 18.7674 34.1626 18.4041 34.5259 17.938C34.8823 17.4719 35.0605 16.9578 35.0605 16.4026V15.3607C34.6561 15.1482 34.1489 14.9769 33.5389 14.8398C32.9288 14.7027 32.2639 14.6342 31.5511 14.6342C30.6257 14.6342 29.8649 14.8535 29.2754 15.2853C28.6859 15.724 28.3912 16.3272 28.3912 17.1018L28.3843 17.0949ZM32.2434 6.27175C33.4018 6.27175 34.4436 6.49794 35.3621 6.95034C36.2806 7.40273 37.0072 8.06075 37.5418 8.9107C38.0765 9.76065 38.337 10.7683 38.337 11.9267V21.8793H35.2319V19.8161H35.1428C34.7178 20.4947 34.0804 21.0499 33.2304 21.4817C32.3805 21.9204 31.4003 22.1329 30.2967 22.1329C29.3302 22.1329 28.446 21.941 27.644 21.5503C26.8421 21.1664 26.2046 20.6181 25.7317 19.9121C25.2587 19.2061 25.0188 18.3904 25.0188 17.4582C25.0188 16.3957 25.293 15.4772 25.8482 14.7164C26.3965 13.9556 27.1574 13.3661 28.1101 12.9617C29.0698 12.5573 30.1459 12.3516 31.3454 12.3516C32.0789 12.3516 32.7575 12.4202 33.3744 12.5573C33.9913 12.6944 34.5533 12.8589 35.0605 13.0508V12.0089C35.0605 11.4057 34.9372 10.8848 34.6835 10.4255C34.4299 9.97314 34.0804 9.63042 33.6417 9.39737C33.1961 9.16432 32.6752 9.04779 32.072 9.04779C31.1809 9.04779 30.4132 9.21915 29.7621 9.56873C29.1109 9.91831 28.5351 10.3981 28.0348 11.0219L25.9441 9.1369C26.561 8.32122 27.4316 7.64263 28.542 7.09428C29.6524 6.54592 30.8862 6.26489 32.2434 6.26489V6.27175Z" fill="black"/>
<path d="M48.3174 19.0964C49.2291 19.0964 50.0036 18.8908 50.6548 18.4726C51.306 18.0545 51.7995 17.4787 52.1354 16.7453C52.4712 16.0119 52.6426 15.1894 52.6426 14.2777C52.6426 13.2359 52.4507 12.3242 52.06 11.5497C51.6761 10.7751 51.162 10.1856 50.5383 9.78122C49.9077 9.37681 49.2085 9.17117 48.434 9.17117C47.6183 9.17117 46.8986 9.39051 46.2748 9.82234C45.6511 10.2542 45.1644 10.8505 44.8217 11.5908C44.4858 12.3379 44.3145 13.1742 44.3145 14.0995C44.3145 15.0865 44.4858 15.9571 44.8354 16.711C45.185 17.465 45.6579 18.0477 46.2543 18.4658C46.8575 18.8839 47.5429 19.0895 48.3174 19.0895V19.0964ZM48.2009 28.439C46.9054 28.439 45.6853 28.2196 44.5475 27.7741C43.4028 27.3286 42.3884 26.698 41.4973 25.8891L43.1492 23.4832C43.9238 24.1618 44.7189 24.669 45.5414 25.0049C46.3639 25.3408 47.2413 25.5121 48.1666 25.5121C49.1948 25.5121 50.0311 25.3202 50.6754 24.9295C51.3265 24.5457 51.7858 24.0453 52.0668 23.4352C52.3479 22.8252 52.4849 22.1466 52.4849 21.3926V19.7064H52.3958C51.9709 20.3233 51.354 20.8511 50.5383 21.2898C49.7226 21.7285 48.7904 21.941 47.7211 21.941C46.4805 21.941 45.3426 21.6257 44.2939 20.9951C43.252 20.3645 42.4158 19.4665 41.7989 18.2944C41.182 17.1223 40.8735 15.7583 40.8735 14.1886C40.8735 12.619 41.182 11.3235 41.7989 10.1102C42.4158 8.90385 43.2589 7.95794 44.3213 7.27935C45.3838 6.60076 46.5833 6.26489 47.9199 6.26489C48.9618 6.26489 49.9145 6.5048 50.7782 6.99146C51.6418 7.47813 52.2656 8.03334 52.6494 8.67765H52.7043V6.55963H55.7819V21.2761C55.7819 22.7498 55.4872 24.0179 54.8977 25.094C54.3082 26.1702 53.4446 26.9927 52.2999 27.5753C51.1552 28.158 49.7843 28.4458 48.1804 28.4458L48.2009 28.439Z" fill="black"/>
<path d="M63.0207 6.55969H59.7443V21.8793H63.0207V6.55969Z" fill="black"/>
<path d="M73.6519 6.27175C74.8103 6.27175 75.9138 6.52536 76.9489 7.02573C77.9839 7.52611 78.8407 8.17728 79.5193 8.97239L77.4013 11.0013C76.9763 10.4804 76.4553 10.0417 75.8316 9.69211C75.2147 9.34253 74.5155 9.17117 73.741 9.17117C72.8499 9.17117 72.0822 9.3768 71.431 9.79493C70.7799 10.213 70.2864 10.7888 69.9368 11.536C69.5872 12.2831 69.4158 13.1536 69.4158 14.1612C69.4158 15.1688 69.5872 16.053 69.9231 16.8139C70.2589 17.5747 70.7525 18.171 71.4036 18.596C72.0548 19.021 72.8225 19.2335 73.7136 19.2335C74.6047 19.2335 75.3792 19.0141 76.0509 18.5823C76.7158 18.1436 77.2847 17.5884 77.7508 16.9167L79.8689 18.8017C79.2862 19.7476 78.4568 20.5427 77.3738 21.1801C76.2908 21.8176 75.0296 22.1398 73.6039 22.1398C72.0959 22.1398 70.7662 21.8039 69.6146 21.1253C68.4631 20.4467 67.572 19.5077 66.9414 18.2944C66.3108 17.088 65.9955 15.7172 65.9955 14.1886C65.9955 12.6601 66.3108 11.3509 66.9414 10.1376C67.572 8.93127 68.4631 7.9785 69.6283 7.29306C70.7867 6.60761 72.1371 6.26489 73.6656 6.26489L73.6519 6.27175Z" fill="black"/>
<path d="M117.669 5.28483C117.107 4.60624 116.449 4.09216 115.695 3.74944C114.941 3.39986 114.098 3.2285 113.173 3.2285C112.494 3.2285 111.877 3.33132 111.315 3.5301C110.753 3.73573 110.308 4.04418 109.965 4.45544C109.629 4.87356 109.458 5.38765 109.458 6.0114C109.458 6.63515 109.615 7.10811 109.924 7.50567C110.232 7.90322 110.678 8.23909 111.261 8.50641C111.843 8.78059 112.652 9.05477 113.701 9.34951C115.928 9.98697 117.635 10.8232 118.821 11.8445C120.014 12.8727 120.603 14.2984 120.603 16.1423C120.603 17.4789 120.267 18.603 119.589 19.5215C118.91 20.44 117.998 21.1323 116.847 21.5984C115.695 22.0645 114.414 22.2975 113.002 22.2975C111.59 22.2975 110.136 22.0096 108.704 21.427C107.271 20.8444 106.161 20.0561 105.366 19.0485L107.511 16.8414C108.245 17.6365 109.095 18.2329 110.068 18.6373C111.034 19.0417 112.049 19.2473 113.118 19.2473C114.276 19.2473 115.229 18.9937 115.963 18.4796C116.696 17.9655 117.066 17.2458 117.066 16.3205C117.066 15.5254 116.881 14.881 116.518 14.3875C116.148 13.894 115.641 13.5033 114.982 13.2154C114.324 12.9275 113.399 12.6122 112.2 12.2901C110.171 11.7074 108.622 10.9397 107.559 9.98012C106.497 9.0205 105.962 7.77299 105.962 6.22389C105.962 4.94896 106.284 3.85225 106.935 2.94747C107.587 2.03583 108.457 1.34353 109.561 0.870576C110.664 0.39762 111.884 0.157715 113.214 0.157715C114.544 0.157715 115.757 0.418183 116.957 0.93912C118.156 1.46006 119.15 2.17977 119.945 3.08456L117.683 5.29168L117.669 5.28483Z" fill="black"/>
<path d="M92.8778 3.3038C88.7514 3.3038 85.4065 6.79956 85.4065 11.1178C85.4065 15.4361 88.7514 18.9319 92.8778 18.9319C97.0042 18.9319 100.349 15.4361 100.349 11.1178C100.349 6.79956 97.0042 3.3038 92.8778 3.3038ZM92.8778 0.150757C98.7452 0.150757 103.502 5.05853 103.502 11.1178C103.502 17.1772 98.7452 22.0849 92.8778 22.0849C87.0104 22.0849 82.2534 17.1772 82.2534 11.1178C82.2534 5.05853 87.0104 0.150757 92.8778 0.150757Z" fill="black"/>
<path d="M61.3815 4.45538C62.6118 4.45538 63.6092 3.45801 63.6092 2.22769C63.6092 0.997371 62.6118 0 61.3815 0C60.1512 0 59.1538 0.997371 59.1538 2.22769C59.1538 3.45801 60.1512 4.45538 61.3815 4.45538Z" fill="#256FFF"/>
<path d="M141.874 0.123432C143.779 0.123432 145.335 0.637514 146.549 1.67253C147.796 2.72126 148.42 4.10586 148.42 5.81947C148.42 7.04641 148.077 8.09514 147.398 8.9725C146.816 9.71278 146.055 10.2474 145.123 10.5764V10.6655C146.309 11.0563 147.255 11.7074 147.954 12.6191C148.735 13.613 149.119 14.8262 149.119 16.2656C149.119 18.1712 148.406 19.6997 146.987 20.8512C145.623 21.9617 143.903 22.5169 141.819 22.5169C139.735 22.5169 138.022 21.9617 136.678 20.8512C135.28 19.6997 134.574 18.1849 134.574 16.293C134.574 14.8742 134.971 13.6541 135.773 12.6465C136.493 11.7348 137.439 11.07 138.604 10.6587V10.5696C136.383 9.67166 135.273 8.08828 135.273 5.81261C135.273 4.11957 135.897 2.74868 137.144 1.6931C138.392 0.637514 139.968 0.116577 141.874 0.116577V0.123432ZM137.782 15.9503C137.782 17.1567 138.179 18.1095 138.981 18.8086C139.722 19.4529 140.667 19.7751 141.812 19.7751C143.019 19.7751 143.992 19.4461 144.732 18.7812C145.507 18.082 145.897 17.1361 145.897 15.9503C145.897 14.7645 145.507 13.8323 144.732 13.092C143.951 12.3517 142.977 11.9816 141.812 11.9816C140.647 11.9816 139.708 12.3517 138.954 13.092C138.172 13.8529 137.789 14.8056 137.789 15.9503H137.782ZM138.488 6.0251C138.488 7.01899 138.782 7.80725 139.365 8.38988C139.948 8.9725 140.763 9.26725 141.819 9.26725C142.875 9.26725 143.725 8.9725 144.328 8.38988C144.931 7.80725 145.232 7.00528 145.232 5.99768C145.232 5.06548 144.924 4.31149 144.3 3.74943C143.656 3.1668 142.84 2.87206 141.846 2.87206C140.853 2.87206 140.044 3.1668 139.42 3.74943C138.796 4.33205 138.488 5.0929 138.488 6.0251Z" fill="black"/>
<path d="M153.725 18.0204C154.307 18.0204 154.808 18.226 155.212 18.6304C155.623 19.0417 155.822 19.5352 155.822 20.1178C155.822 20.7005 155.616 21.1666 155.212 21.5778C154.801 21.9891 154.307 22.1879 153.725 22.1879C153.176 22.1879 152.703 21.9822 152.292 21.5778C151.867 21.1529 151.648 20.6662 151.648 20.1178C151.648 19.5352 151.853 19.0348 152.265 18.6304C152.676 18.2192 153.163 18.0204 153.725 18.0204Z" fill="black"/>
<path d="M171.945 15.6899C171.869 17.7736 171.197 19.4392 169.929 20.6799C168.682 21.9068 167.085 22.5169 165.138 22.5169C163.191 22.5169 161.567 21.8931 160.319 20.6456C159.072 19.3981 158.414 17.7325 158.332 15.6556C158.256 12.8316 158.256 10.0007 158.332 7.15609C158.407 5.07234 159.072 3.40671 160.319 2.16606C161.567 0.918553 163.171 0.2948 165.138 0.2948C167.105 0.2948 168.682 0.918553 169.929 2.16606C171.197 3.43413 171.869 5.10661 171.945 7.19036C172.02 10.0349 172.02 12.8658 171.945 15.6899ZM161.402 15.1621C161.519 18.1986 162.766 19.7203 165.138 19.7203C167.51 19.7203 168.73 18.1986 168.846 15.1621C168.922 12.6739 168.922 10.172 168.846 7.65646C168.73 4.61995 167.496 3.09826 165.138 3.09826C162.78 3.09826 161.519 4.61309 161.402 7.65646C161.327 10.1652 161.327 12.6671 161.402 15.1621Z" fill="black"/>
</svg>
